<svg width="605" height="191" viewBox="0 0 605 191" fill="none" xmlns="http://www.w3.org/2000/svg">
<rect y="4.57764e-05" width="604.978" height="191" fill="#0B0B0B"/>
<path d="M0 4.57764e-05H128.301C181.044 4.57764e-05 223.801 42.7568 223.801 95.5V95.5C223.801 148.243 181.044 191 128.301 191H0V4.57764e-05Z" fill="url(#paint0_linear_26_60)"/>
<path d="M604.978 191L476.677 191C423.934 191 381.177 148.243 381.177 95.5V95.5C381.177 42.7568 423.934 -8.62086e-07 476.677 3.83437e-06L604.978 1.52588e-05L604.978 191Z" fill="url(#paint1_linear_26_60)"/>
<path d="M117.535 116H109.8L123.882 76H132.828L146.929 116H139.195L128.511 84.2031H128.199L117.535 116ZM117.789 100.316H138.882V106.137H117.789V100.316ZM184.556 89.4961H177.251C177.043 88.2982 176.659 87.237 176.099 86.3125C175.539 85.375 174.843 84.5807 174.009 83.9297C173.176 83.2786 172.225 82.7904 171.158 82.4648C170.103 82.1263 168.964 81.957 167.74 81.957C165.565 81.957 163.638 82.5039 161.958 83.5977C160.279 84.6784 158.964 86.2669 158.013 88.3633C157.063 90.4466 156.587 92.9922 156.587 96C156.587 99.0599 157.063 101.638 158.013 103.734C158.977 105.818 160.292 107.393 161.958 108.461C163.638 109.516 165.559 110.043 167.72 110.043C168.918 110.043 170.038 109.887 171.08 109.574C172.134 109.249 173.078 108.773 173.912 108.148C174.758 107.523 175.468 106.755 176.041 105.844C176.626 104.932 177.03 103.891 177.251 102.719L184.556 102.758C184.283 104.659 183.69 106.443 182.779 108.109C181.88 109.776 180.702 111.247 179.244 112.523C177.785 113.786 176.08 114.776 174.126 115.492C172.173 116.195 170.005 116.547 167.623 116.547C164.107 116.547 160.969 115.733 158.208 114.105C155.448 112.478 153.274 110.128 151.685 107.055C150.097 103.982 149.302 100.297 149.302 96C149.302 91.6901 150.103 88.0052 151.705 84.9453C153.306 81.8724 155.487 79.5221 158.248 77.8945C161.008 76.2669 164.133 75.4531 167.623 75.4531C169.849 75.4531 171.919 75.7656 173.833 76.3906C175.748 77.0156 177.453 77.9336 178.951 79.1445C180.448 80.3424 181.679 81.8138 182.642 83.5586C183.619 85.2904 184.257 87.2695 184.556 89.4961ZM225.43 89.4961H218.125C217.917 88.2982 217.533 87.237 216.973 86.3125C216.413 85.375 215.717 84.5807 214.883 83.9297C214.05 83.2786 213.099 82.7904 212.032 82.4648C210.977 82.1263 209.838 81.957 208.614 81.957C206.439 81.957 204.512 82.5039 202.833 83.5977C201.153 84.6784 199.838 86.2669 198.887 88.3633C197.937 90.4466 197.461 92.9922 197.461 96C197.461 99.0599 197.937 101.638 198.887 103.734C199.851 105.818 201.166 107.393 202.833 108.461C204.512 109.516 206.433 110.043 208.594 110.043C209.792 110.043 210.912 109.887 211.954 109.574C213.008 109.249 213.952 108.773 214.786 108.148C215.632 107.523 216.342 106.755 216.915 105.844C217.5 104.932 217.904 103.891 218.125 102.719L225.43 102.758C225.157 104.659 224.564 106.443 223.653 108.109C222.754 109.776 221.576 111.247 220.118 112.523C218.659 113.786 216.954 114.776 215 115.492C213.047 116.195 210.879 116.547 208.497 116.547C204.981 116.547 201.843 115.733 199.083 114.105C196.322 112.478 194.148 110.128 192.559 107.055C190.971 103.982 190.176 100.297 190.176 96C190.176 91.6901 190.977 88.0052 192.579 84.9453C194.18 81.8724 196.361 79.5221 199.122 77.8945C201.882 76.2669 205.007 75.4531 208.497 75.4531C210.723 75.4531 212.793 75.7656 214.708 76.3906C216.622 77.0156 218.327 77.9336 219.825 79.1445C221.322 80.3424 222.553 81.8138 223.516 83.5586C224.493 85.2904 225.131 87.2695 225.43 89.4961ZM232.066 116V76H258.082V82.0742H239.312V92.9336H256.734V99.0078H239.312V109.926H258.238V116H232.066ZM287.212 86.9961C287.03 85.2904 286.262 83.9622 284.908 83.0117C283.567 82.0612 281.822 81.5859 279.673 81.5859C278.163 81.5859 276.867 81.8138 275.787 82.2695C274.706 82.7253 273.879 83.3437 273.306 84.125C272.733 84.9062 272.44 85.7982 272.427 86.8008C272.427 87.6341 272.616 88.3568 272.994 88.9687C273.384 89.5807 273.912 90.1016 274.576 90.5312C275.24 90.9479 275.975 91.2995 276.783 91.5859C277.59 91.8724 278.404 92.1133 279.224 92.3086L282.974 93.2461C284.485 93.5977 285.936 94.0729 287.33 94.6719C288.736 95.2708 289.992 96.026 291.099 96.9375C292.219 97.849 293.104 98.9492 293.755 100.238C294.406 101.527 294.732 103.038 294.732 104.77C294.732 107.113 294.133 109.177 292.935 110.961C291.737 112.732 290.005 114.118 287.74 115.121C285.487 116.111 282.759 116.605 279.556 116.605C276.444 116.605 273.742 116.124 271.451 115.16C269.172 114.197 267.388 112.79 266.099 110.941C264.823 109.092 264.133 106.84 264.029 104.184H271.158C271.262 105.577 271.692 106.736 272.447 107.66C273.202 108.585 274.185 109.275 275.396 109.73C276.62 110.186 277.987 110.414 279.498 110.414C281.073 110.414 282.453 110.18 283.638 109.711C284.836 109.229 285.774 108.565 286.451 107.719C287.128 106.859 287.473 105.857 287.486 104.711C287.473 103.669 287.167 102.81 286.568 102.133C285.969 101.443 285.129 100.87 284.048 100.414C282.981 99.9453 281.731 99.5286 280.298 99.1641L275.748 97.9922C272.453 97.1458 269.849 95.8633 267.935 94.1445C266.034 92.4128 265.083 90.1146 265.083 87.25C265.083 84.8932 265.722 82.8294 266.998 81.0586C268.287 79.2878 270.038 77.9141 272.251 76.9375C274.465 75.9479 276.972 75.4531 279.771 75.4531C282.61 75.4531 285.097 75.9479 287.232 76.9375C289.38 77.9141 291.067 79.2747 292.291 81.0195C293.514 82.7513 294.146 84.7435 294.185 86.9961H287.212ZM322.93 86.9961C322.748 85.2904 321.98 83.9622 320.625 83.0117C319.284 82.0612 317.54 81.5859 315.391 81.5859C313.881 81.5859 312.585 81.8138 311.504 82.2695C310.424 82.7253 309.597 83.3437 309.024 84.125C308.451 84.9062 308.158 85.7982 308.145 86.8008C308.145 87.6341 308.334 88.3568 308.711 88.9687C309.102 89.5807 309.629 90.1016 310.293 90.5312C310.958 90.9479 311.693 91.2995 312.5 91.5859C313.308 91.8724 314.122 92.1133 314.942 92.3086L318.692 93.2461C320.202 93.5977 321.654 94.0729 323.047 94.6719C324.454 95.2708 325.71 96.026 326.817 96.9375C327.937 97.849 328.822 98.9492 329.473 100.238C330.124 101.527 330.45 103.038 330.45 104.77C330.45 107.113 329.851 109.177 328.653 110.961C327.455 112.732 325.723 114.118 323.458 115.121C321.205 116.111 318.477 116.605 315.274 116.605C312.162 116.605 309.46 116.124 307.168 115.16C304.89 114.197 303.106 112.79 301.817 110.941C300.541 109.092 299.851 106.84 299.747 104.184H306.875C306.98 105.577 307.409 106.736 308.165 107.66C308.92 108.585 309.903 109.275 311.114 109.73C312.338 110.186 313.705 110.414 315.215 110.414C316.791 110.414 318.171 110.18 319.356 109.711C320.554 109.229 321.491 108.565 322.168 107.719C322.846 106.859 323.191 105.857 323.204 104.711C323.191 103.669 322.885 102.81 322.286 102.133C321.687 101.443 320.847 100.87 319.766 100.414C318.698 99.9453 317.448 99.5286 316.016 99.1641L311.465 97.9922C308.171 97.1458 305.567 95.8633 303.653 94.1445C301.752 92.4128 300.801 90.1146 300.801 87.25C300.801 84.8932 301.439 82.8294 302.715 81.0586C304.004 79.2878 305.756 77.9141 307.969 76.9375C310.183 75.9479 312.689 75.4531 315.489 75.4531C318.327 75.4531 320.814 75.9479 322.95 76.9375C325.098 77.9141 326.784 79.2747 328.008 81.0195C329.232 82.7513 329.864 84.7435 329.903 86.9961H322.93ZM372.652 96C372.652 100.31 371.845 104.001 370.23 107.074C368.628 110.134 366.441 112.478 363.667 114.105C360.907 115.733 357.776 116.547 354.273 116.547C350.77 116.547 347.632 115.733 344.859 114.105C342.098 112.465 339.911 110.115 338.296 107.055C336.695 103.982 335.894 100.297 335.894 96C335.894 91.6901 336.695 88.0052 338.296 84.9453C339.911 81.8724 342.098 79.5221 344.859 77.8945C347.632 76.2669 350.77 75.4531 354.273 75.4531C357.776 75.4531 360.907 76.2669 363.667 77.8945C366.441 79.5221 368.628 81.8724 370.23 84.9453C371.845 88.0052 372.652 91.6901 372.652 96ZM365.367 96C365.367 92.9661 364.891 90.4076 363.941 88.3242C363.003 86.2279 361.701 84.6458 360.035 83.5781C358.368 82.4974 356.447 81.957 354.273 81.957C352.098 81.957 350.178 82.4974 348.511 83.5781C346.845 84.6458 345.536 86.2279 344.585 88.3242C343.648 90.4076 343.179 92.9661 343.179 96C343.179 99.0339 343.648 101.599 344.585 103.695C345.536 105.779 346.845 107.361 348.511 108.441C350.178 109.509 352.098 110.043 354.273 110.043C356.447 110.043 358.368 109.509 360.035 108.441C361.701 107.361 363.003 105.779 363.941 103.695C364.891 101.599 365.367 99.0339 365.367 96ZM379.502 116V76H394.502C397.575 76 400.153 76.5339 402.237 77.6016C404.333 78.6693 405.915 80.1667 406.983 82.0937C408.064 84.0078 408.604 86.2409 408.604 88.793C408.604 91.3581 408.057 93.5846 406.963 95.4727C405.883 97.3477 404.288 98.7995 402.178 99.8281C400.069 100.844 397.478 101.352 394.405 101.352H383.721V95.3359H393.428C395.225 95.3359 396.696 95.0885 397.842 94.5937C398.988 94.0859 399.834 93.3503 400.381 92.3867C400.941 91.4102 401.221 90.2122 401.221 88.793C401.221 87.3737 400.941 86.1628 400.381 85.1602C399.821 84.1445 398.969 83.3763 397.823 82.8555C396.677 82.3216 395.199 82.0547 393.389 82.0547H386.749V116H379.502ZM400.167 97.875L410.069 116H401.983L392.256 97.875H400.167ZM422.52 76V116H415.274V76H422.52ZM430.367 116V76H456.382V82.0742H437.613V92.9336H455.035V99.0078H437.613V109.926H456.539V116H430.367ZM485.513 86.9961C485.331 85.2904 484.563 83.9622 483.208 83.0117C481.867 82.0612 480.123 81.5859 477.974 81.5859C476.464 81.5859 475.168 81.8138 474.087 82.2695C473.007 82.7253 472.18 83.3437 471.607 84.125C471.034 84.9062 470.741 85.7982 470.728 86.8008C470.728 87.6341 470.917 88.3568 471.294 88.9687C471.685 89.5807 472.212 90.1016 472.876 90.5312C473.541 90.9479 474.276 91.2995 475.083 91.5859C475.891 91.8724 476.705 92.1133 477.525 92.3086L481.275 93.2461C482.785 93.5977 484.237 94.0729 485.63 94.6719C487.037 95.2708 488.293 96.026 489.4 96.9375C490.52 97.849 491.405 98.9492 492.056 100.238C492.707 101.527 493.033 103.038 493.033 104.77C493.033 107.113 492.434 109.177 491.236 110.961C490.038 112.732 488.306 114.118 486.041 115.121C483.788 116.111 481.06 116.605 477.857 116.605C474.745 116.605 472.043 116.124 469.751 115.16C467.473 114.197 465.689 112.79 464.4 110.941C463.124 109.092 462.434 106.84 462.33 104.184H469.458C469.563 105.577 469.992 106.736 470.748 107.66C471.503 108.585 472.486 109.275 473.697 109.73C474.921 110.186 476.288 110.414 477.798 110.414C479.374 110.414 480.754 110.18 481.939 109.711C483.137 109.229 484.074 108.565 484.751 107.719C485.429 106.859 485.774 105.857 485.787 104.711C485.774 103.669 485.468 102.81 484.869 102.133C484.27 101.443 483.43 100.87 482.349 100.414C481.281 99.9453 480.031 99.5286 478.599 99.1641L474.048 97.9922C470.754 97.1458 468.15 95.8633 466.236 94.1445C464.335 92.4128 463.384 90.1146 463.384 87.25C463.384 84.8932 464.022 82.8294 465.298 81.0586C466.587 79.2878 468.339 77.9141 470.552 76.9375C472.766 75.9479 475.272 75.4531 478.072 75.4531C480.91 75.4531 483.397 75.9479 485.533 76.9375C487.681 77.9141 489.367 79.2747 490.591 81.0195C491.815 82.7513 492.447 84.7435 492.486 86.9961H485.513Z" fill="url(#paint2_linear_26_60)"/>
<defs>
<linearGradient id="paint0_linear_26_60" x1="-1.15671e-06" y1="87.4333" x2="223.801" y2="88.6874" gradientUnits="userSpaceOnUse">
<stop stop-color="#101010"/>
<stop offset="1" stop-color="#1F1F1F"/>
</linearGradient>
<linearGradient id="paint1_linear_26_60" x1="390.119" y1="91.3365" x2="604.978" y2="90.8349" gradientUnits="userSpaceOnUse">
<stop stop-color="#1F1F1F"/>
<stop offset="1" stop-color="#101010"/>
</linearGradient>
<linearGradient id="paint2_linear_26_60" x1="302" y1="62" x2="302" y2="129" gradientUnits="userSpaceOnUse">
<stop stop-color="#D5F7FF"/>
<stop offset="0.458333" stop-color="#D5F7FF"/>
<stop offset="1" stop-color="#D5F7FF" stop-opacity="0.29"/>
</linearGradient>
</defs>
</svg>
