<svg width="1184" height="191" viewBox="0 0 1184 191" fill="none" xmlns="http://www.w3.org/2000/svg">
<rect y="4.57764e-05" width="1184" height="191" fill="#0B0B0B"/>
<path d="M0 4.57764e-05H342.5C395.243 4.57764e-05 438 42.7568 438 95.5V95.5C438 148.243 395.243 191 342.5 191H0V4.57764e-05Z" fill="url(#paint0_linear_25_19)"/>
<path d="M1184 191L841.5 191C788.757 191 746 148.243 746 95.5V95.5C746 42.7568 788.757 -2.72397e-06 841.5 -3.24262e-07L1184 1.52588e-05L1184 191Z" fill="url(#paint1_linear_25_19)"/>
<path d="M407.535 117H399.8L413.882 77H422.828L436.929 117H429.195L418.511 85.2031H418.199L407.535 117ZM407.789 101.316H428.882V107.137H407.789V101.316ZM474.556 90.4961H467.251C467.043 89.2982 466.659 88.237 466.099 87.3125C465.539 86.375 464.843 85.5807 464.009 84.9297C463.176 84.2786 462.225 83.7904 461.158 83.4648C460.103 83.1263 458.964 82.957 457.74 82.957C455.565 82.957 453.638 83.5039 451.958 84.5977C450.279 85.6784 448.964 87.2669 448.013 89.3633C447.063 91.4466 446.587 93.9922 446.587 97C446.587 100.06 447.063 102.638 448.013 104.734C448.977 106.818 450.292 108.393 451.958 109.461C453.638 110.516 455.559 111.043 457.72 111.043C458.918 111.043 460.038 110.887 461.08 110.574C462.134 110.249 463.078 109.773 463.912 109.148C464.758 108.523 465.468 107.755 466.041 106.844C466.626 105.932 467.03 104.891 467.251 103.719L474.556 103.758C474.283 105.659 473.69 107.443 472.779 109.109C471.88 110.776 470.702 112.247 469.244 113.523C467.785 114.786 466.08 115.776 464.126 116.492C462.173 117.195 460.005 117.547 457.623 117.547C454.107 117.547 450.969 116.733 448.208 115.105C445.448 113.478 443.274 111.128 441.685 108.055C440.097 104.982 439.302 101.297 439.302 97C439.302 92.6901 440.103 89.0052 441.705 85.9453C443.306 82.8724 445.487 80.5221 448.248 78.8945C451.008 77.2669 454.133 76.4531 457.623 76.4531C459.849 76.4531 461.919 76.7656 463.833 77.3906C465.748 78.0156 467.453 78.9336 468.951 80.1445C470.448 81.3424 471.679 82.8138 472.642 84.5586C473.619 86.2904 474.257 88.2695 474.556 90.4961ZM515.43 90.4961H508.125C507.917 89.2982 507.533 88.237 506.973 87.3125C506.413 86.375 505.717 85.5807 504.883 84.9297C504.05 84.2786 503.099 83.7904 502.032 83.4648C500.977 83.1263 499.838 82.957 498.614 82.957C496.439 82.957 494.512 83.5039 492.833 84.5977C491.153 85.6784 489.838 87.2669 488.887 89.3633C487.937 91.4466 487.461 93.9922 487.461 97C487.461 100.06 487.937 102.638 488.887 104.734C489.851 106.818 491.166 108.393 492.833 109.461C494.512 110.516 496.433 111.043 498.594 111.043C499.792 111.043 500.912 110.887 501.954 110.574C503.008 110.249 503.952 109.773 504.786 109.148C505.632 108.523 506.342 107.755 506.915 106.844C507.5 105.932 507.904 104.891 508.125 103.719L515.43 103.758C515.157 105.659 514.564 107.443 513.653 109.109C512.754 110.776 511.576 112.247 510.118 113.523C508.659 114.786 506.954 115.776 505 116.492C503.047 117.195 500.879 117.547 498.497 117.547C494.981 117.547 491.843 116.733 489.083 115.105C486.322 113.478 484.148 111.128 482.559 108.055C480.971 104.982 480.176 101.297 480.176 97C480.176 92.6901 480.977 89.0052 482.579 85.9453C484.18 82.8724 486.361 80.5221 489.122 78.8945C491.882 77.2669 495.007 76.4531 498.497 76.4531C500.723 76.4531 502.793 76.7656 504.708 77.3906C506.622 78.0156 508.327 78.9336 509.825 80.1445C511.322 81.3424 512.553 82.8138 513.516 84.5586C514.493 86.2904 515.131 88.2695 515.43 90.4961ZM522.066 117V77H548.082V83.0742H529.312V93.9336H546.734V100.008H529.312V110.926H548.238V117H522.066ZM577.212 87.9961C577.03 86.2904 576.262 84.9622 574.908 84.0117C573.567 83.0612 571.822 82.5859 569.673 82.5859C568.163 82.5859 566.867 82.8138 565.787 83.2695C564.706 83.7253 563.879 84.3437 563.306 85.125C562.733 85.9062 562.44 86.7982 562.427 87.8008C562.427 88.6341 562.616 89.3568 562.994 89.9687C563.384 90.5807 563.912 91.1016 564.576 91.5312C565.24 91.9479 565.975 92.2995 566.783 92.5859C567.59 92.8724 568.404 93.1133 569.224 93.3086L572.974 94.2461C574.485 94.5977 575.936 95.0729 577.33 95.6719C578.736 96.2708 579.992 97.026 581.099 97.9375C582.219 98.849 583.104 99.9492 583.755 101.238C584.406 102.527 584.732 104.038 584.732 105.77C584.732 108.113 584.133 110.177 582.935 111.961C581.737 113.732 580.005 115.118 577.74 116.121C575.487 117.111 572.759 117.605 569.556 117.605C566.444 117.605 563.742 117.124 561.451 116.16C559.172 115.197 557.388 113.79 556.099 111.941C554.823 110.092 554.133 107.84 554.029 105.184H561.158C561.262 106.577 561.692 107.736 562.447 108.66C563.202 109.585 564.185 110.275 565.396 110.73C566.62 111.186 567.987 111.414 569.498 111.414C571.073 111.414 572.453 111.18 573.638 110.711C574.836 110.229 575.774 109.565 576.451 108.719C577.128 107.859 577.473 106.857 577.486 105.711C577.473 104.669 577.167 103.81 576.568 103.133C575.969 102.443 575.129 101.87 574.048 101.414C572.981 100.945 571.731 100.529 570.298 100.164L565.748 98.9922C562.453 98.1458 559.849 96.8633 557.935 95.1445C556.034 93.4128 555.083 91.1146 555.083 88.25C555.083 85.8932 555.722 83.8294 556.998 82.0586C558.287 80.2878 560.038 78.9141 562.251 77.9375C564.465 76.9479 566.972 76.4531 569.771 76.4531C572.61 76.4531 575.097 76.9479 577.232 77.9375C579.38 78.9141 581.067 80.2747 582.291 82.0195C583.514 83.7513 584.146 85.7435 584.185 87.9961H577.212ZM612.93 87.9961C612.748 86.2904 611.98 84.9622 610.625 84.0117C609.284 83.0612 607.54 82.5859 605.391 82.5859C603.881 82.5859 602.585 82.8138 601.504 83.2695C600.424 83.7253 599.597 84.3437 599.024 85.125C598.451 85.9062 598.158 86.7982 598.145 87.8008C598.145 88.6341 598.334 89.3568 598.711 89.9687C599.102 90.5807 599.629 91.1016 600.293 91.5312C600.958 91.9479 601.693 92.2995 602.5 92.5859C603.308 92.8724 604.122 93.1133 604.942 93.3086L608.692 94.2461C610.202 94.5977 611.654 95.0729 613.047 95.6719C614.454 96.2708 615.71 97.026 616.817 97.9375C617.937 98.849 618.822 99.9492 619.473 101.238C620.124 102.527 620.45 104.038 620.45 105.77C620.45 108.113 619.851 110.177 618.653 111.961C617.455 113.732 615.723 115.118 613.458 116.121C611.205 117.111 608.477 117.605 605.274 117.605C602.162 117.605 599.46 117.124 597.168 116.16C594.89 115.197 593.106 113.79 591.817 111.941C590.541 110.092 589.851 107.84 589.747 105.184H596.875C596.98 106.577 597.409 107.736 598.165 108.66C598.92 109.585 599.903 110.275 601.114 110.73C602.338 111.186 603.705 111.414 605.215 111.414C606.791 111.414 608.171 111.18 609.356 110.711C610.554 110.229 611.491 109.565 612.168 108.719C612.846 107.859 613.191 106.857 613.204 105.711C613.191 104.669 612.885 103.81 612.286 103.133C611.687 102.443 610.847 101.87 609.766 101.414C608.698 100.945 607.448 100.529 606.016 100.164L601.465 98.9922C598.171 98.1458 595.567 96.8633 593.653 95.1445C591.752 93.4128 590.801 91.1146 590.801 88.25C590.801 85.8932 591.439 83.8294 592.715 82.0586C594.004 80.2878 595.756 78.9141 597.969 77.9375C600.183 76.9479 602.689 76.4531 605.489 76.4531C608.327 76.4531 610.814 76.9479 612.95 77.9375C615.098 78.9141 616.784 80.2747 618.008 82.0195C619.232 83.7513 619.864 85.7435 619.903 87.9961H612.93ZM662.652 97C662.652 101.31 661.845 105.001 660.23 108.074C658.628 111.134 656.441 113.478 653.667 115.105C650.907 116.733 647.776 117.547 644.273 117.547C640.77 117.547 637.632 116.733 634.859 115.105C632.098 113.465 629.911 111.115 628.296 108.055C626.695 104.982 625.894 101.297 625.894 97C625.894 92.6901 626.695 89.0052 628.296 85.9453C629.911 82.8724 632.098 80.5221 634.859 78.8945C637.632 77.2669 640.77 76.4531 644.273 76.4531C647.776 76.4531 650.907 77.2669 653.667 78.8945C656.441 80.5221 658.628 82.8724 660.23 85.9453C661.845 89.0052 662.652 92.6901 662.652 97ZM655.367 97C655.367 93.9661 654.891 91.4076 653.941 89.3242C653.003 87.2279 651.701 85.6458 650.035 84.5781C648.368 83.4974 646.447 82.957 644.273 82.957C642.098 82.957 640.178 83.4974 638.511 84.5781C636.845 85.6458 635.536 87.2279 634.585 89.3242C633.648 91.4076 633.179 93.9661 633.179 97C633.179 100.034 633.648 102.599 634.585 104.695C635.536 106.779 636.845 108.361 638.511 109.441C640.178 110.509 642.098 111.043 644.273 111.043C646.447 111.043 648.368 110.509 650.035 109.441C651.701 108.361 653.003 106.779 653.941 104.695C654.891 102.599 655.367 100.034 655.367 97ZM669.502 117V77H684.502C687.575 77 690.153 77.5339 692.237 78.6016C694.333 79.6693 695.915 81.1667 696.983 83.0937C698.064 85.0078 698.604 87.2409 698.604 89.793C698.604 92.3581 698.057 94.5846 696.963 96.4727C695.883 98.3477 694.288 99.7995 692.178 100.828C690.069 101.844 687.478 102.352 684.405 102.352H673.721V96.3359H683.428C685.225 96.3359 686.696 96.0885 687.842 95.5937C688.988 95.0859 689.834 94.3503 690.381 93.3867C690.941 92.4102 691.221 91.2122 691.221 89.793C691.221 88.3737 690.941 87.1628 690.381 86.1602C689.821 85.1445 688.969 84.3763 687.823 83.8555C686.677 83.3216 685.199 83.0547 683.389 83.0547H676.749V117H669.502ZM690.167 98.875L700.069 117H691.983L682.256 98.875H690.167ZM712.52 77V117H705.274V77H712.52ZM720.367 117V77H746.382V83.0742H727.613V93.9336H745.035V100.008H727.613V110.926H746.539V117H720.367ZM775.513 87.9961C775.331 86.2904 774.563 84.9622 773.208 84.0117C771.867 83.0612 770.123 82.5859 767.974 82.5859C766.464 82.5859 765.168 82.8138 764.087 83.2695C763.007 83.7253 762.18 84.3437 761.607 85.125C761.034 85.9062 760.741 86.7982 760.728 87.8008C760.728 88.6341 760.917 89.3568 761.294 89.9687C761.685 90.5807 762.212 91.1016 762.876 91.5312C763.541 91.9479 764.276 92.2995 765.083 92.5859C765.891 92.8724 766.705 93.1133 767.525 93.3086L771.275 94.2461C772.785 94.5977 774.237 95.0729 775.63 95.6719C777.037 96.2708 778.293 97.026 779.4 97.9375C780.52 98.849 781.405 99.9492 782.056 101.238C782.707 102.527 783.033 104.038 783.033 105.77C783.033 108.113 782.434 110.177 781.236 111.961C780.038 113.732 778.306 115.118 776.041 116.121C773.788 117.111 771.06 117.605 767.857 117.605C764.745 117.605 762.043 117.124 759.751 116.16C757.473 115.197 755.689 113.79 754.4 111.941C753.124 110.092 752.434 107.84 752.33 105.184H759.458C759.563 106.577 759.992 107.736 760.748 108.66C761.503 109.585 762.486 110.275 763.697 110.73C764.921 111.186 766.288 111.414 767.798 111.414C769.374 111.414 770.754 111.18 771.939 110.711C773.137 110.229 774.074 109.565 774.751 108.719C775.429 107.859 775.774 106.857 775.787 105.711C775.774 104.669 775.468 103.81 774.869 103.133C774.27 102.443 773.43 101.87 772.349 101.414C771.281 100.945 770.031 100.529 768.599 100.164L764.048 98.9922C760.754 98.1458 758.15 96.8633 756.236 95.1445C754.335 93.4128 753.384 91.1146 753.384 88.25C753.384 85.8932 754.022 83.8294 755.298 82.0586C756.587 80.2878 758.339 78.9141 760.552 77.9375C762.766 76.9479 765.272 76.4531 768.072 76.4531C770.91 76.4531 773.397 76.9479 775.533 77.9375C777.681 78.9141 779.367 80.2747 780.591 82.0195C781.815 83.7513 782.447 85.7435 782.486 87.9961H775.513Z" fill="url(#paint2_linear_25_19)"/>
<defs>
<linearGradient id="paint0_linear_25_19" x1="-2.26378e-06" y1="87.4333" x2="437.962" y2="92.2365" gradientUnits="userSpaceOnUse">
<stop stop-color="#101010"/>
<stop offset="1" stop-color="#1F1F1F"/>
</linearGradient>
<linearGradient id="paint1_linear_25_19" x1="763.5" y1="91.3365" x2="1183.99" y2="89.4151" gradientUnits="userSpaceOnUse">
<stop stop-color="#1F1F1F"/>
<stop offset="1" stop-color="#101010"/>
</linearGradient>
<linearGradient id="paint2_linear_25_19" x1="592" y1="63" x2="592" y2="130" gradientUnits="userSpaceOnUse">
<stop stop-color="#D5F7FF"/>
<stop offset="0.458333" stop-color="#D5F7FF"/>
<stop offset="1" stop-color="#D5F7FF" stop-opacity="0.29"/>
</linearGradient>
</defs>
</svg>
