<svg width="24" height="24" viewBox="0 0 24 24" fill="none" xmlns="http://www.w3.org/2000/svg">
<path d="M2.66667 24C2.28889 24 1.972 23.872 1.716 23.616C1.46089 23.3609 1.33333 23.0444 1.33333 22.6667V21.3333H0V16C0 15.6222 0.128 15.3053 0.384 15.0493C0.639111 14.7942 0.955556 14.6667 1.33333 14.6667H2.66667V5.33333C2.66667 3.86667 3.18889 2.61111 4.23333 1.56667C5.27778 0.522222 6.53333 0 8 0C9.46667 0 10.7222 0.522222 11.7667 1.56667C12.8111 2.61111 13.3333 3.86667 13.3333 5.33333V18.6667C13.3333 19.4 13.5947 20.028 14.1173 20.5507C14.6391 21.0724 15.2667 21.3333 16 21.3333C16.7333 21.3333 17.3613 21.0724 17.884 20.5507C18.4058 20.028 18.6667 19.4 18.6667 18.6667V9.33333H17.3333C16.9556 9.33333 16.6391 9.20533 16.384 8.94933C16.128 8.69422 16 8.37778 16 8V2.66667H17.3333V1.33333C17.3333 0.955556 17.4613 0.638667 17.7173 0.382667C17.9724 0.127555 18.2889 0 18.6667 0H21.3333C21.7111 0 22.0276 0.127555 22.2827 0.382667C22.5387 0.638667 22.6667 0.955556 22.6667 1.33333V2.66667H24V8C24 8.37778 23.872 8.69422 23.616 8.94933C23.3609 9.20533 23.0444 9.33333 22.6667 9.33333H21.3333V18.6667C21.3333 20.1333 20.8111 21.3889 19.7667 22.4333C18.7222 23.4778 17.4667 24 16 24C14.5333 24 13.2778 23.4778 12.2333 22.4333C11.1889 21.3889 10.6667 20.1333 10.6667 18.6667V5.33333C10.6667 4.6 10.4058 3.97244 9.884 3.45067C9.36133 2.928 8.73333 2.66667 8 2.66667C7.26667 2.66667 6.63911 2.928 6.11733 3.45067C5.59467 3.97244 5.33333 4.6 5.33333 5.33333V14.6667H6.66667C7.04444 14.6667 7.36133 14.7942 7.61733 15.0493C7.87245 15.3053 8 15.6222 8 16V21.3333H6.66667V22.6667C6.66667 23.0444 6.53911 23.3609 6.284 23.616C6.028 23.872 5.71111 24 5.33333 24H2.66667Z" fill="black"/>
</svg>
