<svg width="1184" height="191" viewBox="0 0 1184 191" fill="none" xmlns="http://www.w3.org/2000/svg">
<rect y="6.10352e-05" width="1184" height="191" fill="#0B0B0B"/>
<path d="M0 6.10352e-05H342.5C395.243 6.10352e-05 438 42.7569 438 95.5001V95.5001C438 148.243 395.243 191 342.5 191H0V6.10352e-05Z" fill="url(#paint0_linear_25_29)"/>
<path d="M1184 191L841.5 191C788.757 191 746 148.243 746 95.5V95.5C746 42.7568 788.757 -2.72397e-06 841.5 -3.24262e-07L1184 1.52588e-05L1184 191Z" fill="url(#paint1_linear_25_29)"/>
<path d="M512.244 117H504.51L518.592 77H527.537L541.639 117H533.904L523.221 85.2031H522.908L512.244 117ZM512.498 101.316H533.592V107.137H512.498V101.316ZM572.122 77H579.368V103.133C579.368 105.997 578.691 108.517 577.337 110.691C575.996 112.866 574.108 114.565 571.673 115.789C569.238 117 566.393 117.605 563.138 117.605C559.869 117.605 557.018 117 554.583 115.789C552.148 114.565 550.26 112.866 548.919 110.691C547.578 108.517 546.907 105.997 546.907 103.133V77H554.153V102.527C554.153 104.194 554.518 105.678 555.247 106.98C555.989 108.283 557.031 109.305 558.372 110.047C559.713 110.776 561.302 111.141 563.138 111.141C564.974 111.141 566.562 110.776 567.903 110.047C569.257 109.305 570.299 108.283 571.028 106.98C571.757 105.678 572.122 104.194 572.122 102.527V77ZM600.799 117H587.244V77H601.072C605.044 77 608.455 77.8008 611.307 79.4023C614.171 80.9909 616.372 83.276 617.908 86.2578C619.445 89.2396 620.213 92.8073 620.213 96.9609C620.213 101.128 619.438 104.708 617.889 107.703C616.352 110.698 614.132 112.996 611.229 114.598C608.338 116.199 604.861 117 600.799 117ZM594.49 110.73H600.447C603.234 110.73 605.558 110.223 607.42 109.207C609.282 108.178 610.682 106.648 611.619 104.617C612.557 102.573 613.025 100.021 613.025 96.9609C613.025 93.901 612.557 91.362 611.619 89.3437C610.682 87.3125 609.295 85.7956 607.459 84.793C605.636 83.7773 603.37 83.2695 600.662 83.2695H594.49V110.73ZM634.344 77V117H627.098V77H634.344ZM677.933 97C677.933 101.31 677.125 105.001 675.511 108.074C673.909 111.134 671.722 113.478 668.948 115.105C666.188 116.733 663.056 117.547 659.554 117.547C656.051 117.547 652.913 116.733 650.14 115.105C647.379 113.465 645.192 111.115 643.577 108.055C641.976 104.982 641.175 101.297 641.175 97C641.175 92.6901 641.976 89.0052 643.577 85.9453C645.192 82.8724 647.379 80.5221 650.14 78.8945C652.913 77.2669 656.051 76.4531 659.554 76.4531C663.056 76.4531 666.188 77.2669 668.948 78.8945C671.722 80.5221 673.909 82.8724 675.511 85.9453C677.125 89.0052 677.933 92.6901 677.933 97ZM670.647 97C670.647 93.9661 670.172 91.4076 669.222 89.3242C668.284 87.2279 666.982 85.6458 665.315 84.5781C663.649 83.4974 661.728 82.957 659.554 82.957C657.379 82.957 655.459 83.4974 653.792 84.5781C652.125 85.6458 650.817 87.2279 649.866 89.3242C648.929 91.4076 648.46 93.9661 648.46 97C648.46 100.034 648.929 102.599 649.866 104.695C650.817 106.779 652.125 108.361 653.792 109.441C655.459 110.509 657.379 111.043 659.554 111.043C661.728 111.043 663.649 110.509 665.315 109.441C666.982 108.361 668.284 106.779 669.222 104.695C670.172 102.599 670.647 100.034 670.647 97Z" fill="url(#paint2_linear_25_29)"/>
<defs>
<linearGradient id="paint0_linear_25_29" x1="-2.26378e-06" y1="87.4333" x2="437.962" y2="92.2365" gradientUnits="userSpaceOnUse">
<stop stop-color="#101010"/>
<stop offset="1" stop-color="#1F1F1F"/>
</linearGradient>
<linearGradient id="paint1_linear_25_29" x1="763.5" y1="91.3365" x2="1183.99" y2="89.4151" gradientUnits="userSpaceOnUse">
<stop stop-color="#1F1F1F"/>
<stop offset="1" stop-color="#101010"/>
</linearGradient>
<linearGradient id="paint2_linear_25_29" x1="592" y1="63" x2="592" y2="130" gradientUnits="userSpaceOnUse">
<stop stop-color="#D5F7FF"/>
<stop offset="0.458333" stop-color="#D5F7FF"/>
<stop offset="1" stop-color="#D5F7FF" stop-opacity="0.29"/>
</linearGradient>
</defs>
</svg>
