<svg width="24" height="24" viewBox="0 0 24 24" fill="none" xmlns="http://www.w3.org/2000/svg">
<path d="M8 24H2.66667C1.93333 24 1.30533 23.7391 0.782667 23.2173C0.260889 22.6947 0 22.0667 0 21.3333V12C0 10.3333 0.316444 8.772 0.949333 7.316C1.58311 5.86089 2.43911 4.59422 3.51733 3.516C4.59467 2.43867 5.86133 1.58311 7.31733 0.949333C8.77244 0.316444 10.3333 0 12 0C13.6667 0 15.228 0.316444 16.684 0.949333C18.1391 1.58311 19.4058 2.43867 20.484 3.516C21.5613 4.59422 22.4169 5.86089 23.0507 7.316C23.6836 8.772 24 10.3333 24 12V21.3333C24 22.0667 23.7391 22.6947 23.2173 23.2173C22.6947 23.7391 22.0667 24 21.3333 24H16V13.3333H21.3333V12C21.3333 9.4 20.4276 7.19422 18.616 5.38267C16.8053 3.572 14.6 2.66667 12 2.66667C9.4 2.66667 7.19467 3.572 5.384 5.38267C3.57244 7.19422 2.66667 9.4 2.66667 12V13.3333H8V24Z" fill="black"/>
</svg>
