<svg width="605" height="191" viewBox="0 0 605 191" fill="none" xmlns="http://www.w3.org/2000/svg">
<rect y="6.10352e-05" width="604.978" height="191" fill="#0B0B0B"/>
<path d="M0 6.10352e-05H128.301C181.044 6.10352e-05 223.801 42.7569 223.801 95.5001V95.5001C223.801 148.243 181.044 191 128.301 191H0V6.10352e-05Z" fill="url(#paint0_linear_26_70)"/>
<path d="M604.978 191L476.677 191C423.934 191 381.177 148.243 381.177 95.5V95.5C381.177 42.7568 423.934 -8.62086e-07 476.677 3.83437e-06L604.978 1.52588e-05L604.978 191Z" fill="url(#paint1_linear_26_70)"/>
<path d="M222.244 116H214.51L228.592 76H237.537L251.639 116H243.904L233.221 84.2031H232.908L222.244 116ZM222.498 100.316H243.592V106.137H222.498V100.316ZM282.122 76H289.368V102.133C289.368 104.997 288.691 107.517 287.337 109.691C285.996 111.866 284.108 113.565 281.673 114.789C279.238 116 276.393 116.605 273.138 116.605C269.869 116.605 267.018 116 264.583 114.789C262.148 113.565 260.26 111.866 258.919 109.691C257.578 107.517 256.907 104.997 256.907 102.133V76H264.153V101.527C264.153 103.194 264.518 104.678 265.247 105.98C265.989 107.283 267.031 108.305 268.372 109.047C269.713 109.776 271.302 110.141 273.138 110.141C274.974 110.141 276.562 109.776 277.903 109.047C279.257 108.305 280.299 107.283 281.028 105.98C281.757 104.678 282.122 103.194 282.122 101.527V76ZM310.799 116H297.244V76H311.072C315.044 76 318.455 76.8008 321.307 78.4023C324.171 79.9909 326.372 82.276 327.908 85.2578C329.445 88.2396 330.213 91.8073 330.213 95.9609C330.213 100.128 329.438 103.708 327.889 106.703C326.352 109.698 324.132 111.996 321.229 113.598C318.338 115.199 314.861 116 310.799 116ZM304.49 109.73H310.447C313.234 109.73 315.558 109.223 317.42 108.207C319.282 107.178 320.682 105.648 321.619 103.617C322.557 101.573 323.025 99.0208 323.025 95.9609C323.025 92.901 322.557 90.362 321.619 88.3437C320.682 86.3125 319.295 84.7956 317.459 83.793C315.636 82.7773 313.37 82.2695 310.662 82.2695H304.49V109.73ZM344.344 76V116H337.098V76H344.344ZM387.933 96C387.933 100.31 387.125 104.001 385.511 107.074C383.909 110.134 381.722 112.478 378.948 114.105C376.188 115.733 373.056 116.547 369.554 116.547C366.051 116.547 362.913 115.733 360.14 114.105C357.379 112.465 355.192 110.115 353.577 107.055C351.976 103.982 351.175 100.297 351.175 96C351.175 91.6901 351.976 88.0052 353.577 84.9453C355.192 81.8724 357.379 79.5221 360.14 77.8945C362.913 76.2669 366.051 75.4531 369.554 75.4531C373.056 75.4531 376.188 76.2669 378.948 77.8945C381.722 79.5221 383.909 81.8724 385.511 84.9453C387.125 88.0052 387.933 91.6901 387.933 96ZM380.647 96C380.647 92.9661 380.172 90.4076 379.222 88.3242C378.284 86.2279 376.982 84.6458 375.315 83.5781C373.649 82.4974 371.728 81.957 369.554 81.957C367.379 81.957 365.459 82.4974 363.792 83.5781C362.125 84.6458 360.817 86.2279 359.866 88.3242C358.929 90.4076 358.46 92.9661 358.46 96C358.46 99.0339 358.929 101.599 359.866 103.695C360.817 105.779 362.125 107.361 363.792 108.441C365.459 109.509 367.379 110.043 369.554 110.043C371.728 110.043 373.649 109.509 375.315 108.441C376.982 107.361 378.284 105.779 379.222 103.695C380.172 101.599 380.647 99.0339 380.647 96Z" fill="url(#paint2_linear_26_70)"/>
<defs>
<linearGradient id="paint0_linear_26_70" x1="-1.15671e-06" y1="87.4333" x2="223.801" y2="88.6875" gradientUnits="userSpaceOnUse">
<stop stop-color="#101010"/>
<stop offset="1" stop-color="#1F1F1F"/>
</linearGradient>
<linearGradient id="paint1_linear_26_70" x1="390.119" y1="91.3365" x2="604.978" y2="90.8349" gradientUnits="userSpaceOnUse">
<stop stop-color="#1F1F1F"/>
<stop offset="1" stop-color="#101010"/>
</linearGradient>
<linearGradient id="paint2_linear_26_70" x1="302" y1="62" x2="302" y2="129" gradientUnits="userSpaceOnUse">
<stop stop-color="#D5F7FF"/>
<stop offset="0.458333" stop-color="#D5F7FF"/>
<stop offset="1" stop-color="#D5F7FF" stop-opacity="0.29"/>
</linearGradient>
</defs>
</svg>
