<svg width="1184" height="191" viewBox="0 0 1184 191" fill="none" xmlns="http://www.w3.org/2000/svg">
<rect width="1184" height="191" fill="#0B0B0B"/>
<path d="M0 0H342.5C395.243 0 438 42.7568 438 95.5V95.5C438 148.243 395.243 191 342.5 191H0V0Z" fill="url(#paint0_linear_25_39)"/>
<path d="M1184 191L841.5 191C788.757 191 746 148.243 746 95.5V95.5C746 42.7568 788.757 -2.72397e-06 841.5 -3.24262e-07L1184 1.52588e-05L1184 191Z" fill="url(#paint1_linear_25_39)"/>
<path d="M554.548 90.4961H547.244C547.035 89.2982 546.651 88.237 546.091 87.3125C545.531 86.375 544.835 85.5807 544.001 84.9297C543.168 84.2786 542.218 83.7904 541.15 83.4648C540.095 83.1263 538.956 82.957 537.732 82.957C535.557 82.957 533.63 83.5039 531.951 84.5977C530.271 85.6784 528.956 87.2669 528.005 89.3633C527.055 91.4466 526.58 93.9922 526.58 97C526.58 100.06 527.055 102.638 528.005 104.734C528.969 106.818 530.284 108.393 531.951 109.461C533.63 110.516 535.551 111.043 537.712 111.043C538.91 111.043 540.03 110.887 541.072 110.574C542.126 110.249 543.07 109.773 543.904 109.148C544.75 108.523 545.46 107.755 546.033 106.844C546.619 105.932 547.022 104.891 547.244 103.719L554.548 103.758C554.275 105.659 553.682 107.443 552.771 109.109C551.873 110.776 550.694 112.247 549.236 113.523C547.778 114.786 546.072 115.776 544.119 116.492C542.166 117.195 539.998 117.547 537.615 117.547C534.099 117.547 530.961 116.733 528.201 115.105C525.44 113.478 523.266 111.128 521.677 108.055C520.089 104.982 519.294 101.297 519.294 97C519.294 92.6901 520.095 89.0052 521.697 85.9453C523.298 82.8724 525.479 80.5221 528.24 78.8945C531 77.2669 534.125 76.4531 537.615 76.4531C539.841 76.4531 541.912 76.7656 543.826 77.3906C545.74 78.0156 547.445 78.9336 548.943 80.1445C550.44 81.3424 551.671 82.8138 552.634 84.5586C553.611 86.2904 554.249 88.2695 554.548 90.4961ZM565.837 117H558.103L572.185 77H581.13L595.232 117H587.498L576.814 85.2031H576.501L565.837 117ZM566.091 101.316H587.185V107.137H566.091V101.316ZM600.5 117V77H615.5C618.573 77 621.152 77.5339 623.235 78.6016C625.331 79.6693 626.913 81.1667 627.981 83.0937C629.062 85.0078 629.602 87.2409 629.602 89.793C629.602 92.3581 629.055 94.5846 627.961 96.4727C626.881 98.3477 625.286 99.7995 623.176 100.828C621.067 101.844 618.476 102.352 615.403 102.352H604.719V96.3359H614.426C616.223 96.3359 617.694 96.0885 618.84 95.5937C619.986 95.0859 620.833 94.3503 621.379 93.3867C621.939 92.4102 622.219 91.2122 622.219 89.793C622.219 88.3737 621.939 87.1628 621.379 86.1602C620.819 85.1445 619.967 84.3763 618.821 83.8555C617.675 83.3216 616.197 83.0547 614.387 83.0547H607.747V117H600.5ZM621.165 98.875L631.067 117H622.981L613.254 98.875H621.165ZM634.514 83.0742V77H666.428V83.0742H654.065V117H646.877V83.0742H634.514Z" fill="url(#paint2_linear_25_39)"/>
<defs>
<linearGradient id="paint0_linear_25_39" x1="-2.26378e-06" y1="87.4332" x2="437.962" y2="92.2365" gradientUnits="userSpaceOnUse">
<stop stop-color="#101010"/>
<stop offset="1" stop-color="#1F1F1F"/>
</linearGradient>
<linearGradient id="paint1_linear_25_39" x1="763.5" y1="91.3365" x2="1183.99" y2="89.4151" gradientUnits="userSpaceOnUse">
<stop stop-color="#1F1F1F"/>
<stop offset="1" stop-color="#101010"/>
</linearGradient>
<linearGradient id="paint2_linear_25_39" x1="592.5" y1="63" x2="592.5" y2="130" gradientUnits="userSpaceOnUse">
<stop stop-color="#D5F7FF"/>
<stop offset="0.458333" stop-color="#D5F7FF"/>
<stop offset="1" stop-color="#D5F7FF" stop-opacity="0.29"/>
</linearGradient>
</defs>
</svg>
