<svg width="23" height="23" viewBox="0 0 23 23" fill="none" xmlns="http://www.w3.org/2000/svg">
<path d="M1.41 0L0 1.41L4.39 5.8L6.6 10.46L5.25 12.91C5.09 13.19 5 13.52 5 13.87C5 14.97 5.9 15.87 7 15.87H14.46L15.84 17.25C15.4966 17.4962 15.2402 17.8449 15.1075 18.246C14.9749 18.6472 14.9729 19.0801 15.1018 19.4824C15.2307 19.8848 15.484 20.2358 15.825 20.4852C16.1661 20.7345 16.5775 20.8692 17 20.87C17.67 20.87 18.26 20.54 18.62 20.03L21.46 22.87L22.87 21.46L1.41 0ZM7 13.87L8.1 11.87H10.46L12.46 13.87H7ZM20 2.87H7.12L9.12 4.87H18.31L15.55 9.87H14.11L16.05 11.81C16.59 11.67 17.04 11.32 17.3 10.84L20.88 4.35C21.25 3.69 20.76 2.87 20 2.87ZM7 16.87C5.9 16.87 5.01 17.77 5.01 18.87C5.01 19.97 5.9 20.87 7 20.87C8.1 20.87 9 19.97 9 18.87C9 17.77 8.1 16.87 7 16.87Z" fill="red"/>
</svg>
