<svg width="1184" height="191" viewBox="0 0 1184 191" fill="none" xmlns="http://www.w3.org/2000/svg">
<rect y="3.8147e-05" width="1184" height="191" fill="#0B0B0B"/>
<path d="M0 3.8147e-05H342.5C395.243 3.8147e-05 438 42.7568 438 95.5V95.5C438 148.243 395.243 191 342.5 191H0V3.8147e-05Z" fill="url(#paint0_linear_25_14)"/>
<path d="M1184 191L841.5 191C788.757 191 746 148.243 746 95.5V95.5C746 42.7568 788.757 -2.72397e-06 841.5 -3.24262e-07L1184 1.52588e-05L1184 191Z" fill="url(#paint1_linear_25_14)"/>
<path d="M509.09 89.7734C508.764 88.7187 508.315 87.7747 507.742 86.9414C507.182 86.0951 506.505 85.3724 505.711 84.7734C504.93 84.1745 504.031 83.7253 503.016 83.4258C502 83.1133 500.893 82.957 499.695 82.957C497.547 82.957 495.633 83.4974 493.953 84.5781C492.273 85.6589 490.952 87.2474 489.988 89.3437C489.038 91.4271 488.563 93.9661 488.563 96.9609C488.563 99.9818 489.038 102.54 489.988 104.637C490.939 106.733 492.26 108.328 493.953 109.422C495.646 110.503 497.612 111.043 499.852 111.043C501.883 111.043 503.641 110.652 505.125 109.871C506.622 109.09 507.775 107.983 508.582 106.551C509.389 105.105 509.793 103.413 509.793 101.473L511.434 101.727H500.574V96.0625H516.805V100.867C516.805 104.292 516.076 107.254 514.617 109.754C513.159 112.254 511.154 114.181 508.602 115.535C506.049 116.876 503.12 117.547 499.813 117.547C496.128 117.547 492.892 116.72 490.105 115.066C487.332 113.4 485.164 111.036 483.602 107.977C482.052 104.904 481.277 101.258 481.277 97.0391C481.277 93.8099 481.733 90.9258 482.645 88.3867C483.569 85.8477 484.858 83.6927 486.512 81.9219C488.165 80.138 490.105 78.7839 492.332 77.8594C494.559 76.9219 496.98 76.4531 499.598 76.4531C501.811 76.4531 503.875 76.7786 505.789 77.4297C507.703 78.0677 509.402 78.9792 510.887 80.1641C512.384 81.349 513.615 82.7552 514.578 84.3828C515.542 86.0104 516.173 87.8073 516.473 89.7734H509.09ZM527.713 117H519.979L534.061 77H543.006L557.107 117H549.373L538.689 85.2031H538.377L527.713 117ZM527.967 101.316H549.061V107.137H527.967V101.316ZM562.376 77H571.243L583.118 105.984H583.587L595.462 77H604.329V117H597.376V89.5195H597.005L585.95 116.883H580.755L569.7 89.4609H569.329V117H562.376V77ZM619.466 77V117H612.22V77H619.466ZM660.184 77V117H653.738L634.891 89.7539H634.559V117H627.312V77H633.797L652.625 104.266H652.977V77H660.184ZM694.876 89.7734C694.55 88.7187 694.101 87.7747 693.528 86.9414C692.968 86.0951 692.291 85.3724 691.497 84.7734C690.716 84.1745 689.817 83.7253 688.802 83.4258C687.786 83.1133 686.679 82.957 685.481 82.957C683.333 82.957 681.419 83.4974 679.739 84.5781C678.06 85.6589 676.738 87.2474 675.774 89.3437C674.824 91.4271 674.349 93.9661 674.349 96.9609C674.349 99.9818 674.824 102.54 675.774 104.637C676.725 106.733 678.047 108.328 679.739 109.422C681.432 110.503 683.398 111.043 685.638 111.043C687.669 111.043 689.427 110.652 690.911 109.871C692.409 109.09 693.561 107.983 694.368 106.551C695.175 105.105 695.579 103.413 695.579 101.473L697.22 101.727H686.36V96.0625H702.591V100.867C702.591 104.292 701.862 107.254 700.403 109.754C698.945 112.254 696.94 114.181 694.388 115.535C691.836 116.876 688.906 117.547 685.599 117.547C681.914 117.547 678.678 116.72 675.892 115.066C673.118 113.4 670.95 111.036 669.388 107.977C667.838 104.904 667.063 101.258 667.063 97.0391C667.063 93.8099 667.519 90.9258 668.431 88.3867C669.355 85.8477 670.644 83.6927 672.298 81.9219C673.951 80.138 675.892 78.7839 678.118 77.8594C680.345 76.9219 682.767 76.4531 685.384 76.4531C687.597 76.4531 689.661 76.7786 691.575 77.4297C693.489 78.0677 695.188 78.9792 696.673 80.1641C698.17 81.349 699.401 82.7552 700.364 84.3828C701.328 86.0104 701.959 87.8073 702.259 89.7734H694.876Z" fill="url(#paint2_linear_25_14)"/>
<defs>
<linearGradient id="paint0_linear_25_14" x1="-2.26378e-06" y1="87.4333" x2="437.962" y2="92.2365" gradientUnits="userSpaceOnUse">
<stop stop-color="#101010"/>
<stop offset="1" stop-color="#1F1F1F"/>
</linearGradient>
<linearGradient id="paint1_linear_25_14" x1="763.5" y1="91.3365" x2="1183.99" y2="89.4151" gradientUnits="userSpaceOnUse">
<stop stop-color="#1F1F1F"/>
<stop offset="1" stop-color="#101010"/>
</linearGradient>
<linearGradient id="paint2_linear_25_14" x1="592" y1="63" x2="592" y2="130" gradientUnits="userSpaceOnUse">
<stop stop-color="#D5F7FF"/>
<stop offset="0.458333" stop-color="#D5F7FF"/>
<stop offset="1" stop-color="#D5F7FF" stop-opacity="0.29"/>
</linearGradient>
</defs>
</svg>
