<svg width="24" height="20" viewBox="0 0 24 20" fill="none" xmlns="http://www.w3.org/2000/svg">
<path d="M22.3095 19.3196C21.2056 19.8716 19.7336 19.5036 18.9976 18.3996L16.9736 15.8237H7.03785L5.0139 18.3996C4.09391 19.6876 2.43795 19.8716 1.14998 18.9516C0.229995 18.2156 -0.137997 17.1116 0.045999 16.1917L1.33397 9.3838C1.70196 7.17585 3.72592 5.51988 5.93388 5.51988H11.0858V2.75994C11.0858 1.28797 12.1897 0 13.6617 0H19.3656C19.9176 0 20.2856 0.367992 20.2856 0.919981C20.2856 1.47197 19.9176 1.83996 19.3656 1.83996H13.8457C13.2937 1.83996 12.9257 2.20795 12.9257 2.57595V5.51988H18.0776C20.2856 5.51988 22.3095 7.17585 22.6775 9.3838L23.9655 16.1917C24.1495 17.4796 23.5975 18.7676 22.3095 19.3196ZM9.24581 10.1198C9.24581 8.64782 7.95783 7.35985 6.48586 7.35985C5.0139 7.35985 3.72592 8.64782 3.72592 10.1198C3.72592 11.5918 5.0139 12.8797 6.48586 12.8797C7.95783 12.8797 9.24581 11.5918 9.24581 10.1198ZM20.2856 10.1198C20.2856 9.5678 19.9176 9.19981 19.3656 9.19981H18.4456V8.27983C18.4456 7.72784 18.0776 7.35985 17.5256 7.35985C16.9736 7.35985 16.6057 7.72784 16.6057 8.27983V9.19981H15.6857C15.1337 9.19981 14.7657 9.5678 14.7657 10.1198C14.7657 10.6718 15.1337 11.0398 15.6857 11.0398H16.6057V11.9598C16.6057 12.5117 16.9736 12.8797 17.5256 12.8797C18.0776 12.8797 18.4456 12.5117 18.4456 11.9598V11.0398H19.3656C19.9176 11.0398 20.2856 10.6718 20.2856 10.1198Z" fill="black"/>
</svg>
