<svg width="605" height="191" viewBox="0 0 605 191" fill="none" xmlns="http://www.w3.org/2000/svg">
<rect y="4.76837e-05" width="604.978" height="191" fill="#0B0B0B"/>
<path d="M0 4.76837e-05H128.301C181.044 4.76837e-05 223.801 42.7569 223.801 95.5V95.5C223.801 148.243 181.044 191 128.301 191H0V4.76837e-05Z" fill="url(#paint0_linear_26_55)"/>
<path d="M604.978 191L476.677 191C423.934 191 381.177 148.243 381.177 95.5V95.5C381.177 42.7568 423.934 -8.62086e-07 476.677 3.83437e-06L604.978 1.52588e-05L604.978 191Z" fill="url(#paint1_linear_26_55)"/>
<path d="M219.09 88.7734C218.764 87.7187 218.315 86.7747 217.742 85.9414C217.182 85.0951 216.505 84.3724 215.711 83.7734C214.93 83.1745 214.031 82.7253 213.016 82.4258C212 82.1133 210.893 81.957 209.695 81.957C207.547 81.957 205.633 82.4974 203.953 83.5781C202.273 84.6589 200.952 86.2474 199.988 88.3437C199.038 90.4271 198.563 92.9661 198.563 95.9609C198.563 98.9818 199.038 101.54 199.988 103.637C200.939 105.733 202.26 107.328 203.953 108.422C205.646 109.503 207.612 110.043 209.852 110.043C211.883 110.043 213.641 109.652 215.125 108.871C216.622 108.09 217.775 106.983 218.582 105.551C219.389 104.105 219.793 102.413 219.793 100.473L221.434 100.727H210.574V95.0625H226.805V99.8672C226.805 103.292 226.076 106.254 224.617 108.754C223.159 111.254 221.154 113.181 218.602 114.535C216.049 115.876 213.12 116.547 209.813 116.547C206.128 116.547 202.892 115.72 200.105 114.066C197.332 112.4 195.164 110.036 193.602 106.977C192.052 103.904 191.277 100.258 191.277 96.0391C191.277 92.8099 191.733 89.9258 192.645 87.3867C193.569 84.8477 194.858 82.6927 196.512 80.9219C198.165 79.138 200.105 77.7839 202.332 76.8594C204.559 75.9219 206.98 75.4531 209.598 75.4531C211.811 75.4531 213.875 75.7786 215.789 76.4297C217.703 77.0677 219.402 77.9792 220.887 79.1641C222.384 80.349 223.615 81.7552 224.578 83.3828C225.542 85.0104 226.173 86.8073 226.473 88.7734H219.09ZM237.713 116H229.979L244.061 76H253.006L267.107 116H259.373L248.689 84.2031H248.377L237.713 116ZM237.967 100.316H259.061V106.137H237.967V100.316ZM272.376 76H281.243L293.118 104.984H293.587L305.462 76H314.329V116H307.376V88.5195H307.005L295.95 115.883H290.755L279.7 88.4609H279.329V116H272.376V76ZM329.466 76V116H322.22V76H329.466ZM370.184 76V116H363.738L344.891 88.7539H344.559V116H337.312V76H343.797L362.625 103.266H362.977V76H370.184ZM404.876 88.7734C404.55 87.7187 404.101 86.7747 403.528 85.9414C402.968 85.0951 402.291 84.3724 401.497 83.7734C400.716 83.1745 399.817 82.7253 398.802 82.4258C397.786 82.1133 396.679 81.957 395.481 81.957C393.333 81.957 391.419 82.4974 389.739 83.5781C388.06 84.6589 386.738 86.2474 385.774 88.3437C384.824 90.4271 384.349 92.9661 384.349 95.9609C384.349 98.9818 384.824 101.54 385.774 103.637C386.725 105.733 388.047 107.328 389.739 108.422C391.432 109.503 393.398 110.043 395.638 110.043C397.669 110.043 399.427 109.652 400.911 108.871C402.409 108.09 403.561 106.983 404.368 105.551C405.175 104.105 405.579 102.413 405.579 100.473L407.22 100.727H396.36V95.0625H412.591V99.8672C412.591 103.292 411.862 106.254 410.403 108.754C408.945 111.254 406.94 113.181 404.388 114.535C401.836 115.876 398.906 116.547 395.599 116.547C391.914 116.547 388.678 115.72 385.892 114.066C383.118 112.4 380.95 110.036 379.388 106.977C377.838 103.904 377.063 100.258 377.063 96.0391C377.063 92.8099 377.519 89.9258 378.431 87.3867C379.355 84.8477 380.644 82.6927 382.298 80.9219C383.951 79.138 385.892 77.7839 388.118 76.8594C390.345 75.9219 392.767 75.4531 395.384 75.4531C397.597 75.4531 399.661 75.7786 401.575 76.4297C403.489 77.0677 405.188 77.9792 406.673 79.1641C408.17 80.349 409.401 81.7552 410.364 83.3828C411.328 85.0104 411.959 86.8073 412.259 88.7734H404.876Z" fill="url(#paint2_linear_26_55)"/>
<defs>
<linearGradient id="paint0_linear_26_55" x1="-1.15671e-06" y1="87.4333" x2="223.801" y2="88.6874" gradientUnits="userSpaceOnUse">
<stop stop-color="#101010"/>
<stop offset="1" stop-color="#1F1F1F"/>
</linearGradient>
<linearGradient id="paint1_linear_26_55" x1="390.119" y1="91.3365" x2="604.978" y2="90.8349" gradientUnits="userSpaceOnUse">
<stop stop-color="#1F1F1F"/>
<stop offset="1" stop-color="#101010"/>
</linearGradient>
<linearGradient id="paint2_linear_26_55" x1="302" y1="62" x2="302" y2="129" gradientUnits="userSpaceOnUse">
<stop stop-color="#D5F7FF"/>
<stop offset="0.458333" stop-color="#D5F7FF"/>
<stop offset="1" stop-color="#D5F7FF" stop-opacity="0.29"/>
</linearGradient>
</defs>
</svg>
