<svg width="24" height="21" viewBox="0 0 24 21" fill="none" xmlns="http://www.w3.org/2000/svg">
<path d="M0 0.75C0 0.551088 0.0790176 0.360322 0.21967 0.21967C0.360322 0.0790176 0.551088 0 0.75 0H2.25C2.44891 0 2.63968 0.0790176 2.78033 0.21967C2.92098 0.360322 3 0.551088 3 0.75V4.5H23.25C23.4489 4.5 23.6397 4.57902 23.7803 4.71967C23.921 4.86032 24 5.05109 24 5.25V15.75C24 15.9489 23.921 16.1397 23.7803 16.2803C23.6397 16.421 23.4489 16.5 23.25 16.5H3V20.25C3 20.4489 2.92098 20.6397 2.78033 20.7803C2.63968 20.921 2.44891 21 2.25 21C2.05109 21 1.86032 20.921 1.71967 20.7803C1.57902 20.6397 1.5 20.4489 1.5 20.25V1.5H0.75C0.551088 1.5 0.360322 1.42098 0.21967 1.28033C0.0790176 1.13968 0 0.948912 0 0.75Z" fill="black"/>
<path d="M4.5 17.25H9.75V18.75C9.75 18.9489 9.67098 19.1397 9.53033 19.2803C9.38968 19.421 9.19891 19.5 9 19.5H5.25C5.05109 19.5 4.86032 19.421 4.71967 19.2803C4.57902 19.1397 4.5 18.9489 4.5 18.75V17.25ZM10.5 17.25H16.5V18.75C16.5 18.9489 16.421 19.1397 16.2803 19.2803C16.1397 19.421 15.9489 19.5 15.75 19.5H11.25C11.0511 19.5 10.8603 19.421 10.7197 19.2803C10.579 19.1397 10.5 18.9489 10.5 18.75V17.25Z" fill="black"/>
</svg>
