<svg width="605" height="191" viewBox="0 0 605 191" fill="none" xmlns="http://www.w3.org/2000/svg">
<rect y="3.05176e-05" width="604.978" height="191" fill="#0B0B0B"/>
<path d="M0 3.05176e-05H128.301C181.044 3.05176e-05 223.801 42.7568 223.801 95.5V95.5C223.801 148.243 181.044 191 128.301 191H0V3.05176e-05Z" fill="url(#paint0_linear_26_45)"/>
<path d="M604.978 191L476.677 191C423.934 191 381.177 148.243 381.177 95.5V95.5C381.177 42.7568 423.934 -8.62086e-07 476.677 3.83437e-06L604.978 1.52588e-05L604.978 191Z" fill="url(#paint1_linear_26_45)"/>
<path d="M177.398 83V43H184.645V76.9258H202.262V83H177.398ZM215.191 83H207.457L221.539 43H230.484L244.586 83H236.852L226.168 51.2031H225.855L215.191 83ZM215.445 67.3164H236.539V73.1367H215.445V67.3164ZM249.854 83V43H264.854C267.927 43 270.506 43.5729 272.589 44.7187C274.685 45.8646 276.267 47.4401 277.335 49.4453C278.416 51.4375 278.956 53.7031 278.956 56.2422C278.956 58.8073 278.416 61.0859 277.335 63.0781C276.254 65.0703 274.659 66.6393 272.55 67.7852C270.44 68.918 267.843 69.4844 264.757 69.4844H254.815V63.5273H263.78C265.577 63.5273 267.049 63.2148 268.194 62.5898C269.34 61.9648 270.187 61.1055 270.733 60.0117C271.293 58.918 271.573 57.6615 271.573 56.2422C271.573 54.8229 271.293 53.5729 270.733 52.4922C270.187 51.4115 269.334 50.5716 268.175 49.9727C267.029 49.3607 265.551 49.0547 263.741 49.0547H257.101V83H249.854ZM283.492 49.0742V43H315.406V49.0742H303.043V83H295.855V49.0742H283.492ZM355.528 63C355.528 67.3099 354.721 71.0013 353.106 74.0742C351.505 77.1341 349.317 79.4779 346.544 81.1055C343.784 82.7331 340.652 83.5469 337.149 83.5469C333.647 83.5469 330.509 82.7331 327.735 81.1055C324.975 79.4648 322.787 77.1146 321.173 74.0547C319.571 70.9818 318.771 67.2969 318.771 63C318.771 58.6901 319.571 55.0052 321.173 51.9453C322.787 48.8724 324.975 46.5221 327.735 44.8945C330.509 43.2669 333.647 42.4531 337.149 42.4531C340.652 42.4531 343.784 43.2669 346.544 44.8945C349.317 46.5221 351.505 48.8724 353.106 51.9453C354.721 55.0052 355.528 58.6901 355.528 63ZM348.243 63C348.243 59.9661 347.768 57.4076 346.817 55.3242C345.88 53.2279 344.578 51.6458 342.911 50.5781C341.244 49.4974 339.324 48.957 337.149 48.957C334.975 48.957 333.054 49.4974 331.388 50.5781C329.721 51.6458 328.412 53.2279 327.462 55.3242C326.524 57.4076 326.056 59.9661 326.056 63C326.056 66.0339 326.524 68.599 327.462 70.6953C328.412 72.7786 329.721 74.3607 331.388 75.4414C333.054 76.5091 334.975 77.043 337.149 77.043C339.324 77.043 341.244 76.5091 342.911 75.4414C344.578 74.3607 345.88 72.7786 346.817 70.6953C347.768 68.599 348.243 66.0339 348.243 63ZM362.379 83V43H377.379C380.452 43 383.03 43.5729 385.113 44.7187C387.21 45.8646 388.792 47.4401 389.859 49.4453C390.94 51.4375 391.48 53.7031 391.48 56.2422C391.48 58.8073 390.94 61.0859 389.859 63.0781C388.779 65.0703 387.184 66.6393 385.074 67.7852C382.965 68.918 380.367 69.4844 377.281 69.4844H367.34V63.5273H376.305C378.102 63.5273 379.573 63.2148 380.719 62.5898C381.865 61.9648 382.711 61.1055 383.258 60.0117C383.818 58.918 384.098 57.6615 384.098 56.2422C384.098 54.8229 383.818 53.5729 383.258 52.4922C382.711 51.4115 381.858 50.5716 380.699 49.9727C379.553 49.3607 378.076 49.0547 376.266 49.0547H369.625V83H362.379ZM419.513 53.9961C419.33 52.2904 418.562 50.9622 417.208 50.0117C415.867 49.0612 414.122 48.5859 411.974 48.5859C410.463 48.5859 409.168 48.8138 408.087 49.2695C407.006 49.7253 406.179 50.3437 405.606 51.125C405.034 51.9062 404.741 52.7982 404.728 53.8008C404.728 54.6341 404.916 55.3568 405.294 55.9687C405.685 56.5807 406.212 57.1016 406.876 57.5312C407.54 57.9479 408.276 58.2995 409.083 58.5859C409.89 58.8724 410.704 59.1133 411.524 59.3086L415.274 60.2461C416.785 60.5977 418.237 61.0729 419.63 61.6719C421.036 62.2708 422.293 63.026 423.399 63.9375C424.519 64.849 425.405 65.9492 426.056 67.2383C426.707 68.5273 427.032 70.0378 427.032 71.7695C427.032 74.1133 426.433 76.1771 425.235 77.9609C424.037 79.7318 422.306 81.1185 420.04 82.1211C417.787 83.1107 415.06 83.6055 411.856 83.6055C408.744 83.6055 406.043 83.1237 403.751 82.1602C401.472 81.1966 399.688 79.7904 398.399 77.9414C397.123 76.0924 396.433 73.8398 396.329 71.1836H403.458C403.562 72.5768 403.992 73.7357 404.747 74.6602C405.502 75.5846 406.485 76.2747 407.696 76.7305C408.92 77.1862 410.287 77.4141 411.798 77.4141C413.373 77.4141 414.754 77.1797 415.938 76.7109C417.136 76.2292 418.074 75.5651 418.751 74.7187C419.428 73.8594 419.773 72.8568 419.786 71.7109C419.773 70.6693 419.467 69.8099 418.868 69.1328C418.269 68.4427 417.429 67.8698 416.349 67.4141C415.281 66.9453 414.031 66.5286 412.599 66.1641L408.048 64.9922C404.754 64.1458 402.149 62.8633 400.235 61.1445C398.334 59.4128 397.384 57.1146 397.384 54.25C397.384 51.8932 398.022 49.8294 399.298 48.0586C400.587 46.2878 402.338 44.9141 404.552 43.9375C406.765 42.9479 409.272 42.4531 412.071 42.4531C414.91 42.4531 417.397 42.9479 419.532 43.9375C421.681 44.9141 423.367 46.2747 424.591 48.0195C425.815 49.7513 426.446 51.7435 426.485 53.9961H419.513ZM205.416 150H197.682L211.764 110H220.709L234.811 150H227.076L216.393 118.203H216.08L205.416 150ZM205.67 134.316H226.764V140.137H205.67V134.316ZM272.95 110V150H266.505L247.657 122.754H247.325V150H240.079V110H246.563L265.392 137.266H265.743V110H272.95ZM294.4 150H280.846V110H294.674C298.645 110 302.057 110.801 304.908 112.402C307.773 113.991 309.973 116.276 311.51 119.258C313.046 122.24 313.814 125.807 313.814 129.961C313.814 134.128 313.04 137.708 311.49 140.703C309.954 143.698 307.734 145.996 304.83 147.598C301.939 149.199 298.463 150 294.4 150ZM288.092 143.73H294.049C296.835 143.73 299.16 143.223 301.021 142.207C302.883 141.178 304.283 139.648 305.221 137.617C306.158 135.573 306.627 133.021 306.627 129.961C306.627 126.901 306.158 124.362 305.221 122.344C304.283 120.312 302.896 118.796 301.061 117.793C299.238 116.777 296.972 116.27 294.264 116.27H288.092V143.73ZM334.342 150V110H349.342C352.415 110 354.993 110.573 357.076 111.719C359.173 112.865 360.755 114.44 361.822 116.445C362.903 118.437 363.443 120.703 363.443 123.242C363.443 125.807 362.903 128.086 361.822 130.078C360.742 132.07 359.146 133.639 357.037 134.785C354.928 135.918 352.33 136.484 349.244 136.484H339.303V130.527H348.268C350.064 130.527 351.536 130.215 352.682 129.59C353.827 128.965 354.674 128.105 355.221 127.012C355.781 125.918 356.061 124.661 356.061 123.242C356.061 121.823 355.781 120.573 355.221 119.492C354.674 118.411 353.821 117.572 352.662 116.973C351.516 116.361 350.038 116.055 348.229 116.055H341.588V150H334.342ZM403.976 123.496H396.671C396.463 122.298 396.078 121.237 395.519 120.312C394.959 119.375 394.262 118.581 393.429 117.93C392.595 117.279 391.645 116.79 390.577 116.465C389.522 116.126 388.383 115.957 387.159 115.957C384.985 115.957 383.058 116.504 381.378 117.598C379.698 118.678 378.383 120.267 377.433 122.363C376.482 124.447 376.007 126.992 376.007 130C376.007 133.06 376.482 135.638 377.433 137.734C378.396 139.818 379.711 141.393 381.378 142.461C383.058 143.516 384.978 144.043 387.14 144.043C388.338 144.043 389.457 143.887 390.499 143.574C391.554 143.249 392.498 142.773 393.331 142.148C394.177 141.523 394.887 140.755 395.46 139.844C396.046 138.932 396.45 137.891 396.671 136.719L403.976 136.758C403.702 138.659 403.11 140.443 402.198 142.109C401.3 143.776 400.121 145.247 398.663 146.523C397.205 147.786 395.499 148.776 393.546 149.492C391.593 150.195 389.425 150.547 387.042 150.547C383.526 150.547 380.388 149.733 377.628 148.105C374.868 146.478 372.693 144.128 371.104 141.055C369.516 137.982 368.722 134.297 368.722 130C368.722 125.69 369.522 122.005 371.124 118.945C372.726 115.872 374.907 113.522 377.667 111.895C380.427 110.267 383.552 109.453 387.042 109.453C389.269 109.453 391.339 109.766 393.253 110.391C395.167 111.016 396.873 111.934 398.37 113.145C399.868 114.342 401.098 115.814 402.062 117.559C403.038 119.29 403.676 121.27 403.976 123.496Z" fill="url(#paint2_linear_26_45)"/>
<defs>
<linearGradient id="paint0_linear_26_45" x1="-1.15671e-06" y1="87.4333" x2="223.801" y2="88.6874" gradientUnits="userSpaceOnUse">
<stop stop-color="#101010"/>
<stop offset="1" stop-color="#1F1F1F"/>
</linearGradient>
<linearGradient id="paint1_linear_26_45" x1="390.119" y1="91.3365" x2="604.978" y2="90.8349" gradientUnits="userSpaceOnUse">
<stop stop-color="#1F1F1F"/>
<stop offset="1" stop-color="#101010"/>
</linearGradient>
<linearGradient id="paint2_linear_26_45" x1="301.5" y1="29" x2="301.5" y2="163" gradientUnits="userSpaceOnUse">
<stop stop-color="#D5F7FF"/>
<stop offset="0.458333" stop-color="#D5F7FF"/>
<stop offset="1" stop-color="#D5F7FF" stop-opacity="0.73"/>
</linearGradient>
</defs>
</svg>
