<svg width="1184" height="191" viewBox="0 0 1184 191" fill="none" xmlns="http://www.w3.org/2000/svg">
<rect y="3.05176e-05" width="1184" height="191" fill="#0B0B0B"/>
<path d="M0 3.05176e-05H342.5C395.243 3.05176e-05 438 42.7568 438 95.5V95.5C438 148.243 395.243 191 342.5 191H0V3.05176e-05Z" fill="url(#paint0_linear_5_37)"/>
<path d="M1184 191L841.5 191C788.757 191 746 148.243 746 95.5V95.5C746 42.7568 788.757 -2.72397e-06 841.5 -3.24262e-07L1184 1.52588e-05L1184 191Z" fill="url(#paint1_linear_5_37)"/>
<path d="M355.411 117V77H362.657V110.926H380.274V117H355.411ZM393.204 117H385.47L399.552 77H408.497L422.599 117H414.864L404.181 85.2031H403.868L393.204 117ZM393.458 101.316H414.552V107.137H393.458V101.316ZM427.867 117V77H442.867C445.94 77 448.518 77.5729 450.602 78.7187C452.698 79.8646 454.28 81.4401 455.348 83.4453C456.428 85.4375 456.969 87.7031 456.969 90.2422C456.969 92.8073 456.428 95.0859 455.348 97.0781C454.267 99.0703 452.672 100.639 450.562 101.785C448.453 102.918 445.855 103.484 442.77 103.484H432.828V97.5273H441.793C443.59 97.5273 445.061 97.2148 446.207 96.5898C447.353 95.9648 448.199 95.1055 448.746 94.0117C449.306 92.918 449.586 91.6615 449.586 90.2422C449.586 88.8229 449.306 87.5729 448.746 86.4922C448.199 85.4115 447.346 84.5716 446.188 83.9727C445.042 83.3607 443.564 83.0547 441.754 83.0547H435.113V117H427.867ZM461.505 83.0742V77H493.419V83.0742H481.056V117H473.868V83.0742H461.505ZM533.541 97C533.541 101.31 532.734 105.001 531.119 108.074C529.518 111.134 527.33 113.478 524.557 115.105C521.796 116.733 518.665 117.547 515.162 117.547C511.66 117.547 508.521 116.733 505.748 115.105C502.988 113.465 500.8 111.115 499.186 108.055C497.584 104.982 496.783 101.297 496.783 97C496.783 92.6901 497.584 89.0052 499.186 85.9453C500.8 82.8724 502.988 80.5221 505.748 78.8945C508.521 77.2669 511.66 76.4531 515.162 76.4531C518.665 76.4531 521.796 77.2669 524.557 78.8945C527.33 80.5221 529.518 82.8724 531.119 85.9453C532.734 89.0052 533.541 92.6901 533.541 97ZM526.256 97C526.256 93.9661 525.781 91.4076 524.83 89.3242C523.893 87.2279 522.59 85.6458 520.924 84.5781C519.257 83.4974 517.337 82.957 515.162 82.957C512.988 82.957 511.067 83.4974 509.4 84.5781C507.734 85.6458 506.425 87.2279 505.475 89.3242C504.537 91.4076 504.068 93.9661 504.068 97C504.068 100.034 504.537 102.599 505.475 104.695C506.425 106.779 507.734 108.361 509.4 109.441C511.067 110.509 512.988 111.043 515.162 111.043C517.337 111.043 519.257 110.509 520.924 109.441C522.59 108.361 523.893 106.779 524.83 104.695C525.781 102.599 526.256 100.034 526.256 97ZM540.392 117V77H555.392C558.465 77 561.043 77.5729 563.126 78.7187C565.222 79.8646 566.804 81.4401 567.872 83.4453C568.953 85.4375 569.493 87.7031 569.493 90.2422C569.493 92.8073 568.953 95.0859 567.872 97.0781C566.791 99.0703 565.196 100.639 563.087 101.785C560.978 102.918 558.38 103.484 555.294 103.484H545.353V97.5273H554.317C556.114 97.5273 557.586 97.2148 558.731 96.5898C559.877 95.9648 560.724 95.1055 561.271 94.0117C561.83 92.918 562.11 91.6615 562.11 90.2422C562.11 88.8229 561.83 87.5729 561.271 86.4922C560.724 85.4115 559.871 84.5716 558.712 83.9727C557.566 83.3607 556.088 83.0547 554.278 83.0547H547.638V117H540.392ZM597.525 87.9961C597.343 86.2904 596.575 84.9622 595.221 84.0117C593.88 83.0612 592.135 82.5859 589.986 82.5859C588.476 82.5859 587.18 82.8138 586.1 83.2695C585.019 83.7253 584.192 84.3437 583.619 85.125C583.046 85.9062 582.753 86.7982 582.74 87.8008C582.74 88.6341 582.929 89.3568 583.307 89.9687C583.697 90.5807 584.225 91.1016 584.889 91.5312C585.553 91.9479 586.288 92.2995 587.096 92.5859C587.903 92.8724 588.717 93.1133 589.537 93.3086L593.287 94.2461C594.798 94.5977 596.249 95.0729 597.643 95.6719C599.049 96.2708 600.305 97.026 601.412 97.9375C602.532 98.849 603.417 99.9492 604.068 101.238C604.719 102.527 605.045 104.038 605.045 105.77C605.045 108.113 604.446 110.177 603.248 111.961C602.05 113.732 600.318 115.118 598.053 116.121C595.8 117.111 593.072 117.605 589.869 117.605C586.757 117.605 584.055 117.124 581.764 116.16C579.485 115.197 577.701 113.79 576.412 111.941C575.136 110.092 574.446 107.84 574.342 105.184H581.471C581.575 106.577 582.005 107.736 582.76 108.66C583.515 109.585 584.498 110.275 585.709 110.73C586.933 111.186 588.3 111.414 589.811 111.414C591.386 111.414 592.766 111.18 593.951 110.711C595.149 110.229 596.087 109.565 596.764 108.719C597.441 107.859 597.786 106.857 597.799 105.711C597.786 104.669 597.48 103.81 596.881 103.133C596.282 102.443 595.442 101.87 594.361 101.414C593.294 100.945 592.044 100.529 590.611 100.164L586.061 98.9922C582.766 98.1458 580.162 96.8633 578.248 95.1445C576.347 93.4128 575.396 91.1146 575.396 88.25C575.396 85.8932 576.035 83.8294 577.311 82.0586C578.6 80.2878 580.351 78.9141 582.564 77.9375C584.778 76.9479 587.285 76.4531 590.084 76.4531C592.923 76.4531 595.41 76.9479 597.545 77.9375C599.693 78.9141 601.38 80.2747 602.604 82.0195C603.827 83.7513 604.459 85.7435 604.498 87.9961H597.525ZM630.284 117H622.55L636.632 77H645.577L659.679 117H651.944L641.261 85.2031H640.948L630.284 117ZM630.538 101.316H651.632V107.137H630.538V101.316ZM697.818 77V117H691.373L672.525 89.7539H672.193V117H664.947V77H671.432L690.26 104.266H690.611V77H697.818ZM719.269 117H705.714V77H719.542C723.513 77 726.925 77.8008 729.776 79.4023C732.641 80.9909 734.841 83.276 736.378 86.2578C737.914 89.2396 738.683 92.8073 738.683 96.9609C738.683 101.128 737.908 104.708 736.358 107.703C734.822 110.698 732.602 112.996 729.698 114.598C726.808 116.199 723.331 117 719.269 117ZM712.96 110.73H718.917C721.703 110.73 724.028 110.223 725.89 109.207C727.752 108.178 729.151 106.648 730.089 104.617C731.026 102.573 731.495 100.021 731.495 96.9609C731.495 93.901 731.026 91.362 730.089 89.3437C729.151 87.3125 727.765 85.7956 725.929 84.793C724.106 83.7773 721.84 83.2695 719.132 83.2695H712.96V110.73ZM759.21 117V77H774.21C777.283 77 779.861 77.5729 781.944 78.7187C784.041 79.8646 785.623 81.4401 786.69 83.4453C787.771 85.4375 788.312 87.7031 788.312 90.2422C788.312 92.8073 787.771 95.0859 786.69 97.0781C785.61 99.0703 784.015 100.639 781.905 101.785C779.796 102.918 777.198 103.484 774.112 103.484H764.171V97.5273H773.136C774.933 97.5273 776.404 97.2148 777.55 96.5898C778.696 95.9648 779.542 95.1055 780.089 94.0117C780.649 92.918 780.929 91.6615 780.929 90.2422C780.929 88.8229 780.649 87.5729 780.089 86.4922C779.542 85.4115 778.689 84.5716 777.53 83.9727C776.384 83.3607 774.907 83.0547 773.097 83.0547H766.456V117H759.21ZM828.844 90.4961H821.539C821.331 89.2982 820.947 88.237 820.387 87.3125C819.827 86.375 819.13 85.5807 818.297 84.9297C817.464 84.2786 816.513 83.7904 815.445 83.4648C814.391 83.1263 813.251 82.957 812.027 82.957C809.853 82.957 807.926 83.5039 806.246 84.5977C804.566 85.6784 803.251 87.2669 802.301 89.3633C801.35 91.4466 800.875 93.9922 800.875 97C800.875 100.06 801.35 102.638 802.301 104.734C803.264 106.818 804.579 108.393 806.246 109.461C807.926 110.516 809.846 111.043 812.008 111.043C813.206 111.043 814.326 110.887 815.367 110.574C816.422 110.249 817.366 109.773 818.199 109.148C819.046 108.523 819.755 107.755 820.328 106.844C820.914 105.932 821.318 104.891 821.539 103.719L828.844 103.758C828.57 105.659 827.978 107.443 827.066 109.109C826.168 110.776 824.99 112.247 823.531 113.523C822.073 114.786 820.367 115.776 818.414 116.492C816.461 117.195 814.293 117.547 811.91 117.547C808.395 117.547 805.257 116.733 802.496 115.105C799.736 113.478 797.561 111.128 795.973 108.055C794.384 104.982 793.59 101.297 793.59 97C793.59 92.6901 794.391 89.0052 795.992 85.9453C797.594 82.8724 799.775 80.5221 802.535 78.8945C805.296 77.2669 808.421 76.4531 811.91 76.4531C814.137 76.4531 816.207 76.7656 818.121 77.3906C820.035 78.0156 821.741 78.9336 823.238 80.1445C824.736 81.3424 825.966 82.8138 826.93 84.5586C827.906 86.2904 828.544 88.2695 828.844 90.4961Z" fill="url(#paint2_linear_5_37)"/>
<defs>
<linearGradient id="paint0_linear_5_37" x1="-2.26378e-06" y1="87.4333" x2="437.962" y2="92.2365" gradientUnits="userSpaceOnUse">
<stop stop-color="#101010"/>
<stop offset="1" stop-color="#1F1F1F"/>
</linearGradient>
<linearGradient id="paint1_linear_5_37" x1="763.5" y1="91.3365" x2="1183.99" y2="89.4151" gradientUnits="userSpaceOnUse">
<stop stop-color="#1F1F1F"/>
<stop offset="1" stop-color="#101010"/>
</linearGradient>
<linearGradient id="paint2_linear_5_37" x1="591.5" y1="63" x2="591.5" y2="130" gradientUnits="userSpaceOnUse">
<stop stop-color="#D5F7FF"/>
<stop offset="0.458333" stop-color="#D5F7FF"/>
<stop offset="1" stop-color="#D5F7FF" stop-opacity="0.29"/>
</linearGradient>
</defs>
</svg>
