<svg width="1184" height="191" viewBox="0 0 1184 191" fill="none" xmlns="http://www.w3.org/2000/svg">
<rect y="4.57764e-05" width="1184" height="191" fill="#0B0B0B"/>
<path d="M0 4.57764e-05H342.5C395.243 4.57764e-05 438 42.7568 438 95.5V95.5C438 148.243 395.243 191 342.5 191H0V4.57764e-05Z" fill="url(#paint0_linear_25_9)"/>
<path d="M1184 191L841.5 191C788.757 191 746 148.243 746 95.5V95.5C746 42.7568 788.757 -2.72397e-06 841.5 -3.24262e-07L1184 1.52588e-05L1184 191Z" fill="url(#paint1_linear_25_9)"/>
<path d="M404.059 87.9961C403.876 86.2904 403.108 84.9622 401.754 84.0117C400.413 83.0612 398.668 82.5859 396.52 82.5859C395.009 82.5859 393.714 82.8138 392.633 83.2695C391.552 83.7253 390.725 84.3437 390.152 85.125C389.579 85.9062 389.286 86.7982 389.273 87.8008C389.273 88.6341 389.462 89.3568 389.84 89.9687C390.23 90.5807 390.758 91.1016 391.422 91.5312C392.086 91.9479 392.822 92.2995 393.629 92.5859C394.436 92.8724 395.25 93.1133 396.07 93.3086L399.82 94.2461C401.331 94.5977 402.783 95.0729 404.176 95.6719C405.582 96.2708 406.839 97.026 407.945 97.9375C409.065 98.849 409.951 99.9492 410.602 101.238C411.253 102.527 411.578 104.038 411.578 105.77C411.578 108.113 410.979 110.177 409.781 111.961C408.583 113.732 406.852 115.118 404.586 116.121C402.333 117.111 399.605 117.605 396.402 117.605C393.29 117.605 390.589 117.124 388.297 116.16C386.018 115.197 384.234 113.79 382.945 111.941C381.669 110.092 380.979 107.84 380.875 105.184H388.004C388.108 106.577 388.538 107.736 389.293 108.66C390.048 109.585 391.031 110.275 392.242 110.73C393.466 111.186 394.833 111.414 396.344 111.414C397.919 111.414 399.299 111.18 400.484 110.711C401.682 110.229 402.62 109.565 403.297 108.719C403.974 107.859 404.319 106.857 404.332 105.711C404.319 104.669 404.013 103.81 403.414 103.133C402.815 102.443 401.975 101.87 400.895 101.414C399.827 100.945 398.577 100.529 397.145 100.164L392.594 98.9922C389.299 98.1458 386.695 96.8633 384.781 95.1445C382.88 93.4128 381.93 91.1146 381.93 88.25C381.93 85.8932 382.568 83.8294 383.844 82.0586C385.133 80.2878 386.884 78.9141 389.098 77.9375C391.311 76.9479 393.818 76.4531 396.617 76.4531C399.456 76.4531 401.943 76.9479 404.078 77.9375C406.227 78.9141 407.913 80.2747 409.137 82.0195C410.361 83.7513 410.992 85.7435 411.031 87.9961H404.059ZM418.038 77H426.905L438.78 105.984H439.249L451.124 77H459.991V117H453.038V89.5195H452.667L441.612 116.883H436.417L425.362 89.4609H424.991V117H418.038V77ZM473.019 117H465.284L479.366 77H488.312L502.413 117H494.679L483.995 85.2031H483.683L473.019 117ZM473.272 101.316H494.366V107.137H473.272V101.316ZM507.682 117V77H522.682C525.755 77 528.333 77.5339 530.416 78.6016C532.512 79.6693 534.094 81.1667 535.162 83.0937C536.243 85.0078 536.783 87.2409 536.783 89.793C536.783 92.3581 536.236 94.5846 535.143 96.4727C534.062 98.3477 532.467 99.7995 530.357 100.828C528.248 101.844 525.657 102.352 522.584 102.352H511.9V96.3359H521.607C523.404 96.3359 524.876 96.0885 526.021 95.5937C527.167 95.0859 528.014 94.3503 528.561 93.3867C529.12 92.4102 529.4 91.2122 529.4 89.793C529.4 88.3737 529.12 87.1628 528.561 86.1602C528.001 85.1445 527.148 84.3763 526.002 83.8555C524.856 83.3216 523.378 83.0547 521.568 83.0547H514.928V117H507.682ZM528.346 98.875L538.248 117H530.162L520.436 98.875H528.346ZM541.695 83.0742V77H573.609V83.0742H561.246V117H554.059V83.0742H541.695ZM579.762 117V77H594.762C597.835 77 600.413 77.5729 602.496 78.7187C604.592 79.8646 606.174 81.4401 607.242 83.4453C608.323 85.4375 608.863 87.7031 608.863 90.2422C608.863 92.8073 608.323 95.0859 607.242 97.0781C606.161 99.0703 604.566 100.639 602.457 101.785C600.348 102.918 597.75 103.484 594.664 103.484H584.723V97.5273H593.688C595.484 97.5273 596.956 97.2148 598.102 96.5898C599.247 95.9648 600.094 95.1055 600.641 94.0117C601.201 92.918 601.48 91.6615 601.48 90.2422C601.48 88.8229 601.201 87.5729 600.641 86.4922C600.094 85.4115 599.241 84.5716 598.082 83.9727C596.936 83.3607 595.458 83.0547 593.648 83.0547H587.008V117H579.762ZM615.157 117V77H622.403V93.9336H640.938V77H648.204V117H640.938V100.008H622.403V117H615.157ZM691.827 97C691.827 101.31 691.02 105.001 689.405 108.074C687.804 111.134 685.616 113.478 682.843 115.105C680.082 116.733 676.951 117.547 673.448 117.547C669.946 117.547 666.808 116.733 664.034 115.105C661.274 113.465 659.086 111.115 657.472 108.055C655.87 104.982 655.069 101.297 655.069 97C655.069 92.6901 655.87 89.0052 657.472 85.9453C659.086 82.8724 661.274 80.5221 664.034 78.8945C666.808 77.2669 669.946 76.4531 673.448 76.4531C676.951 76.4531 680.082 77.2669 682.843 78.8945C685.616 80.5221 687.804 82.8724 689.405 85.9453C691.02 89.0052 691.827 92.6901 691.827 97ZM684.542 97C684.542 93.9661 684.067 91.4076 683.116 89.3242C682.179 87.2279 680.877 85.6458 679.21 84.5781C677.543 83.4974 675.623 82.957 673.448 82.957C671.274 82.957 669.353 83.4974 667.687 84.5781C666.02 85.6458 664.711 87.2279 663.761 89.3242C662.823 91.4076 662.354 93.9661 662.354 97C662.354 100.034 662.823 102.599 663.761 104.695C664.711 106.779 666.02 108.361 667.687 109.441C669.353 110.509 671.274 111.043 673.448 111.043C675.623 111.043 677.543 110.509 679.21 109.441C680.877 108.361 682.179 106.779 683.116 104.695C684.067 102.599 684.542 100.034 684.542 97ZM731.549 77V117H725.104L706.256 89.7539H705.924V117H698.678V77H705.162L723.99 104.266H724.342V77H731.549ZM739.444 117V77H765.46V83.0742H746.69V93.9336H764.112V100.008H746.69V110.926H765.616V117H739.444ZM794.591 87.9961C794.409 86.2904 793.64 84.9622 792.286 84.0117C790.945 83.0612 789.2 82.5859 787.052 82.5859C785.541 82.5859 784.246 82.8138 783.165 83.2695C782.084 83.7253 781.257 84.3437 780.685 85.125C780.112 85.9062 779.819 86.7982 779.806 87.8008C779.806 88.6341 779.994 89.3568 780.372 89.9687C780.763 90.5807 781.29 91.1016 781.954 91.5312C782.618 91.9479 783.354 92.2995 784.161 92.5859C784.968 92.8724 785.782 93.1133 786.603 93.3086L790.353 94.2461C791.863 94.5977 793.315 95.0729 794.708 95.6719C796.114 96.2708 797.371 97.026 798.478 97.9375C799.597 98.849 800.483 99.9492 801.134 101.238C801.785 102.527 802.11 104.038 802.11 105.77C802.11 108.113 801.511 110.177 800.313 111.961C799.116 113.732 797.384 115.118 795.118 116.121C792.866 117.111 790.138 117.605 786.935 117.605C783.823 117.605 781.121 117.124 778.829 116.16C776.55 115.197 774.767 113.79 773.478 111.941C772.201 110.092 771.511 107.84 771.407 105.184H778.536C778.64 106.577 779.07 107.736 779.825 108.66C780.58 109.585 781.563 110.275 782.774 110.73C783.998 111.186 785.366 111.414 786.876 111.414C788.451 111.414 789.832 111.18 791.017 110.711C792.215 110.229 793.152 109.565 793.829 108.719C794.506 107.859 794.851 106.857 794.864 105.711C794.851 104.669 794.545 103.81 793.946 103.133C793.347 102.443 792.507 101.87 791.427 101.414C790.359 100.945 789.109 100.529 787.677 100.164L783.126 98.9922C779.832 98.1458 777.228 96.8633 775.313 95.1445C773.412 93.4128 772.462 91.1146 772.462 88.25C772.462 85.8932 773.1 83.8294 774.376 82.0586C775.665 80.2878 777.416 78.9141 779.63 77.9375C781.843 76.9479 784.35 76.4531 787.149 76.4531C789.988 76.4531 792.475 76.9479 794.61 77.9375C796.759 78.9141 798.445 80.2747 799.669 82.0195C800.893 83.7513 801.524 85.7435 801.563 87.9961H794.591Z" fill="url(#paint2_linear_25_9)"/>
<defs>
<linearGradient id="paint0_linear_25_9" x1="-2.26378e-06" y1="87.4333" x2="437.962" y2="92.2365" gradientUnits="userSpaceOnUse">
<stop stop-color="#101010"/>
<stop offset="1" stop-color="#1F1F1F"/>
</linearGradient>
<linearGradient id="paint1_linear_25_9" x1="763.5" y1="91.3365" x2="1183.99" y2="89.4151" gradientUnits="userSpaceOnUse">
<stop stop-color="#1F1F1F"/>
<stop offset="1" stop-color="#101010"/>
</linearGradient>
<linearGradient id="paint2_linear_25_9" x1="591.5" y1="63" x2="591.5" y2="130" gradientUnits="userSpaceOnUse">
<stop stop-color="#D5F7FF"/>
<stop offset="0.458333" stop-color="#D5F7FF"/>
<stop offset="1" stop-color="#D5F7FF" stop-opacity="0.29"/>
</linearGradient>
</defs>
</svg>
