<svg width="605" height="191" viewBox="0 0 605 191" fill="none" xmlns="http://www.w3.org/2000/svg">
<rect y="4.57764e-05" width="604.978" height="191" fill="#0B0B0B"/>
<path d="M0 4.57764e-05H128.301C181.044 4.57764e-05 223.801 42.7568 223.801 95.5V95.5C223.801 148.243 181.044 191 128.301 191H0V4.57764e-05Z" fill="url(#paint0_linear_26_50)"/>
<path d="M604.978 191L476.677 191C423.934 191 381.177 148.243 381.177 95.5V95.5C381.177 42.7568 423.934 -8.62086e-07 476.677 3.83437e-06L604.978 1.52588e-05L604.978 191Z" fill="url(#paint1_linear_26_50)"/>
<path d="M114.059 87.9961C113.876 86.2904 113.108 84.9622 111.754 84.0117C110.413 83.0612 108.668 82.5859 106.52 82.5859C105.009 82.5859 103.714 82.8138 102.633 83.2695C101.552 83.7253 100.725 84.3437 100.152 85.125C99.5794 85.9062 99.2865 86.7982 99.2734 87.8008C99.2734 88.6341 99.4622 89.3568 99.8398 89.9687C100.23 90.5807 100.758 91.1016 101.422 91.5312C102.086 91.9479 102.822 92.2995 103.629 92.5859C104.436 92.8724 105.25 93.1133 106.07 93.3086L109.82 94.2461C111.331 94.5977 112.783 95.0729 114.176 95.6719C115.582 96.2708 116.839 97.026 117.945 97.9375C119.065 98.849 119.951 99.9492 120.602 101.238C121.253 102.527 121.578 104.038 121.578 105.77C121.578 108.113 120.979 110.177 119.781 111.961C118.583 113.732 116.852 115.118 114.586 116.121C112.333 117.111 109.605 117.605 106.402 117.605C103.29 117.605 100.589 117.124 98.2969 116.16C96.0182 115.197 94.2344 113.79 92.9453 111.941C91.6693 110.092 90.9792 107.84 90.875 105.184H98.0039C98.1081 106.577 98.5378 107.736 99.293 108.66C100.048 109.585 101.031 110.275 102.242 110.73C103.466 111.186 104.833 111.414 106.344 111.414C107.919 111.414 109.299 111.18 110.484 110.711C111.682 110.229 112.62 109.565 113.297 108.719C113.974 107.859 114.319 106.857 114.332 105.711C114.319 104.669 114.013 103.81 113.414 103.133C112.815 102.443 111.975 101.87 110.895 101.414C109.827 100.945 108.577 100.529 107.145 100.164L102.594 98.9922C99.2995 98.1458 96.6953 96.8633 94.7813 95.1445C92.8802 93.4128 91.9297 91.1146 91.9297 88.25C91.9297 85.8932 92.5677 83.8294 93.8438 82.0586C95.1328 80.2878 96.8841 78.9141 99.0977 77.9375C101.311 76.9479 103.818 76.4531 106.617 76.4531C109.456 76.4531 111.943 76.9479 114.078 77.9375C116.227 78.9141 117.913 80.2747 119.137 82.0195C120.361 83.7513 120.992 85.7435 121.031 87.9961H114.059ZM128.038 77H136.905L148.78 105.984H149.249L161.124 77H169.991V117H163.038V89.5195H162.667L151.612 116.883H146.417L135.362 89.4609H134.991V117H128.038V77ZM183.019 117H175.284L189.366 77H198.312L212.413 117H204.679L193.995 85.2031H193.683L183.019 117ZM183.272 101.316H204.366V107.137H183.272V101.316ZM217.682 117V77H232.682C235.755 77 238.333 77.5339 240.416 78.6016C242.512 79.6693 244.094 81.1667 245.162 83.0937C246.243 85.0078 246.783 87.2409 246.783 89.793C246.783 92.3581 246.236 94.5846 245.143 96.4727C244.062 98.3477 242.467 99.7995 240.357 100.828C238.248 101.844 235.657 102.352 232.584 102.352H221.9V96.3359H231.607C233.404 96.3359 234.876 96.0885 236.021 95.5937C237.167 95.0859 238.014 94.3503 238.561 93.3867C239.12 92.4102 239.4 91.2122 239.4 89.793C239.4 88.3737 239.12 87.1628 238.561 86.1602C238.001 85.1445 237.148 84.3763 236.002 83.8555C234.856 83.3216 233.378 83.0547 231.568 83.0547H224.928V117H217.682ZM238.346 98.875L248.248 117H240.162L230.436 98.875H238.346ZM251.695 83.0742V77H283.609V83.0742H271.246V117H264.059V83.0742H251.695ZM289.762 117V77H304.762C307.835 77 310.413 77.5729 312.496 78.7187C314.592 79.8646 316.174 81.4401 317.242 83.4453C318.323 85.4375 318.863 87.7031 318.863 90.2422C318.863 92.8073 318.323 95.0859 317.242 97.0781C316.161 99.0703 314.566 100.639 312.457 101.785C310.348 102.918 307.75 103.484 304.664 103.484H294.723V97.5273H303.688C305.484 97.5273 306.956 97.2148 308.102 96.5898C309.247 95.9648 310.094 95.1055 310.641 94.0117C311.201 92.918 311.48 91.6615 311.48 90.2422C311.48 88.8229 311.201 87.5729 310.641 86.4922C310.094 85.4115 309.241 84.5716 308.082 83.9727C306.936 83.3607 305.458 83.0547 303.648 83.0547H297.008V117H289.762ZM325.157 117V77H332.403V93.9336H350.938V77H358.204V117H350.938V100.008H332.403V117H325.157ZM401.827 97C401.827 101.31 401.02 105.001 399.405 108.074C397.804 111.134 395.616 113.478 392.843 115.105C390.082 116.733 386.951 117.547 383.448 117.547C379.946 117.547 376.808 116.733 374.034 115.105C371.274 113.465 369.086 111.115 367.472 108.055C365.87 104.982 365.069 101.297 365.069 97C365.069 92.6901 365.87 89.0052 367.472 85.9453C369.086 82.8724 371.274 80.5221 374.034 78.8945C376.808 77.2669 379.946 76.4531 383.448 76.4531C386.951 76.4531 390.082 77.2669 392.843 78.8945C395.616 80.5221 397.804 82.8724 399.405 85.9453C401.02 89.0052 401.827 92.6901 401.827 97ZM394.542 97C394.542 93.9661 394.067 91.4076 393.116 89.3242C392.179 87.2279 390.877 85.6458 389.21 84.5781C387.543 83.4974 385.623 82.957 383.448 82.957C381.274 82.957 379.353 83.4974 377.687 84.5781C376.02 85.6458 374.711 87.2279 373.761 89.3242C372.823 91.4076 372.354 93.9661 372.354 97C372.354 100.034 372.823 102.599 373.761 104.695C374.711 106.779 376.02 108.361 377.687 109.441C379.353 110.509 381.274 111.043 383.448 111.043C385.623 111.043 387.543 110.509 389.21 109.441C390.877 108.361 392.179 106.779 393.116 104.695C394.067 102.599 394.542 100.034 394.542 97ZM441.549 77V117H435.104L416.256 89.7539H415.924V117H408.678V77H415.162L433.99 104.266H434.342V77H441.549ZM449.444 117V77H475.46V83.0742H456.69V93.9336H474.112V100.008H456.69V110.926H475.616V117H449.444ZM504.591 87.9961C504.409 86.2904 503.64 84.9622 502.286 84.0117C500.945 83.0612 499.2 82.5859 497.052 82.5859C495.541 82.5859 494.246 82.8138 493.165 83.2695C492.084 83.7253 491.257 84.3437 490.685 85.125C490.112 85.9062 489.819 86.7982 489.806 87.8008C489.806 88.6341 489.994 89.3568 490.372 89.9687C490.763 90.5807 491.29 91.1016 491.954 91.5312C492.618 91.9479 493.354 92.2995 494.161 92.5859C494.968 92.8724 495.782 93.1133 496.603 93.3086L500.353 94.2461C501.863 94.5977 503.315 95.0729 504.708 95.6719C506.114 96.2708 507.371 97.026 508.478 97.9375C509.597 98.849 510.483 99.9492 511.134 101.238C511.785 102.527 512.11 104.038 512.11 105.77C512.11 108.113 511.511 110.177 510.313 111.961C509.116 113.732 507.384 115.118 505.118 116.121C502.866 117.111 500.138 117.605 496.935 117.605C493.823 117.605 491.121 117.124 488.829 116.16C486.55 115.197 484.767 113.79 483.478 111.941C482.201 110.092 481.511 107.84 481.407 105.184H488.536C488.64 106.577 489.07 107.736 489.825 108.66C490.58 109.585 491.563 110.275 492.774 110.73C493.998 111.186 495.366 111.414 496.876 111.414C498.451 111.414 499.832 111.18 501.017 110.711C502.215 110.229 503.152 109.565 503.829 108.719C504.506 107.859 504.851 106.857 504.864 105.711C504.851 104.669 504.545 103.81 503.946 103.133C503.347 102.443 502.507 101.87 501.427 101.414C500.359 100.945 499.109 100.529 497.677 100.164L493.126 98.9922C489.832 98.1458 487.228 96.8633 485.313 95.1445C483.412 93.4128 482.462 91.1146 482.462 88.25C482.462 85.8932 483.1 83.8294 484.376 82.0586C485.665 80.2878 487.416 78.9141 489.63 77.9375C491.843 76.9479 494.35 76.4531 497.149 76.4531C499.988 76.4531 502.475 76.9479 504.61 77.9375C506.759 78.9141 508.445 80.2747 509.669 82.0195C510.893 83.7513 511.524 85.7435 511.563 87.9961H504.591Z" fill="url(#paint2_linear_26_50)"/>
<defs>
<linearGradient id="paint0_linear_26_50" x1="-1.15671e-06" y1="87.4333" x2="223.801" y2="88.6874" gradientUnits="userSpaceOnUse">
<stop stop-color="#101010"/>
<stop offset="1" stop-color="#1F1F1F"/>
</linearGradient>
<linearGradient id="paint1_linear_26_50" x1="390.119" y1="91.3365" x2="604.978" y2="90.8349" gradientUnits="userSpaceOnUse">
<stop stop-color="#1F1F1F"/>
<stop offset="1" stop-color="#101010"/>
</linearGradient>
<linearGradient id="paint2_linear_26_50" x1="301.5" y1="63" x2="301.5" y2="130" gradientUnits="userSpaceOnUse">
<stop stop-color="#D5F7FF"/>
<stop offset="0.458333" stop-color="#D5F7FF"/>
<stop offset="1" stop-color="#D5F7FF" stop-opacity="0.29"/>
</linearGradient>
</defs>
</svg>
