<svg width="69" height="54" viewBox="0 0 69 54" fill="none" xmlns="http://www.w3.org/2000/svg">
<path d="M56.0225 1.79402e-05C55.6237 -0.000927649 55.2256 0.0355089 54.8335 0.108853C54.7221 0.129604 54.6122 0.154853 54.5037 0.181409C59.0925 2.11054 61.0972 11.8456 59.2681 18.8647C55.3273 16.1075 51.6264 11.7578 49.2694 6.4439C48.7 8.99832 48.8227 12.0902 49.7846 15.3049C51.8183 22.102 56.8816 27.091 61.5644 27.2085C61.9134 28.3128 62.088 29.4399 62.0073 30.4147C61.9242 31.4174 61.6124 32.2383 61.0309 32.8724C60.6352 33.3041 60.0969 33.6764 59.3222 33.9383C57.7085 30.026 51.4493 26.8244 43.1398 25.4628L44.2654 21.5535C45.508 21.2839 46.4395 20.1783 46.4395 18.8509C46.4395 17.3208 45.2028 16.0801 43.6777 16.0801C42.1527 16.0801 40.9161 17.3208 40.9161 18.8509C40.9161 19.5905 41.2091 20.2597 41.6799 20.7555L40.4278 25.0954C38.3592 24.8687 36.2799 24.7552 34.199 24.7554C32.3736 24.7554 30.5912 24.8407 28.8741 25.0002L27.6718 20.8282C28.2529 20.3203 28.6211 19.5762 28.6211 18.7424C28.6211 17.2123 27.3844 15.9762 25.8593 15.9762C24.3341 15.9762 23.0974 17.2123 23.0974 18.7424C23.0974 19.977 23.9016 21.0235 25.0139 21.3817L26.153 25.3269C17.4665 26.5902 10.8499 29.8389 9.1165 33.8479C8.17456 33.8617 7.49862 33.6515 6.98729 33.34C6.3089 32.9264 5.84314 32.2792 5.54082 31.3766C5.25905 30.535 5.16865 29.4854 5.23793 28.397C9.69885 29.2275 15.4016 25.2887 18.4283 19.0916C19.5803 16.7325 20.1878 14.3634 20.2905 12.2124C17.0624 16.0103 12.8915 18.8412 8.79104 20.4113C8.38892 13.7886 12.6874 5.33625 17.8358 5.36499C17.9377 5.36542 18.0412 5.37123 18.1433 5.37848C17.549 4.77894 16.8296 4.31894 16.0368 4.03154C15.3229 3.77179 14.5678 3.6528 13.7859 3.66005C9.5636 3.69836 4.62188 7.45476 1.87952 13.0696C-0.931409 18.8251 -0.509762 24.6506 2.61187 27.1953C2.37146 28.8979 2.44986 30.6519 2.9826 32.2424C3.43823 33.6035 4.28124 34.8621 5.58624 35.6573C6.60355 36.2769 7.85489 36.586 9.28371 36.5505C10.6437 37.8816 12.0207 39.1126 13.5327 40.2102C10.6091 43.1456 9.33116 47.9041 9.42807 53.1113L12.1312 53.0569C12.0375 48.0124 13.3842 43.9119 15.8829 41.7338C16.7351 42.222 17.6151 42.6596 18.5184 43.0441C17.0498 45.8206 16.4008 49.3478 16.4706 53.1113L19.1737 53.0569C19.1063 49.4247 19.7855 46.281 21.1038 43.9917C21.8492 44.2239 22.631 44.4358 23.4544 44.6222C22.9698 47.0696 22.7524 49.9676 22.7807 53.0977L25.4839 53.0707C25.4568 50.0686 25.6741 47.3202 26.1122 45.121C28.4704 45.4756 31.1376 45.6652 34.1989 45.6652C37.8942 45.6652 41.0031 45.3955 43.6913 44.8943C43.7032 44.9503 43.7159 45.0053 43.7275 45.0621C44.1734 47.2707 44.3922 50.0423 44.3648 53.0708L47.0683 53.0978C47.0968 49.9254 46.8747 46.9905 46.3764 44.5225C46.3608 44.4446 46.3432 44.3684 46.3268 44.2914C47.0885 44.0839 47.8177 43.8566 48.5101 43.6064C49.9819 45.922 50.7466 49.215 50.6752 53.0569L53.3737 53.1113C53.4481 49.1126 52.7098 45.3794 51.0413 42.5317C51.8319 42.1453 52.6015 41.7169 53.3467 41.2484C56.2411 43.2619 57.8145 47.6101 57.7133 53.0569L60.4163 53.1113C60.5202 47.5339 59.0482 42.4706 55.6655 39.6115C56.7512 38.7611 57.7829 37.8391 58.8026 36.8543C60.6006 36.5336 62.0319 35.7867 63.02 34.7091C64.0723 33.5617 64.5804 32.1048 64.7015 30.6416C64.8107 29.3218 64.6325 27.9759 64.2584 26.6873C68.3184 24.8773 69.9807 18.6596 67.9605 11.9083C65.9041 5.03543 60.7488 0.00959539 56.0226 1.79402e-05H56.0225ZM45.7254 29.9205L53.1793 36.2373L46.5797 33.0042L41.9284 38.1103L41.092 39.0309L40.1067 38.269L34.0359 33.5799L29.2763 38.5543L28.3086 39.5704L27.3322 38.559L22.5726 33.6298L16.7776 36.5502L23.5806 30.7819L23.8202 31.0269L28.2953 35.6614L32.924 30.8227L33.7646 29.943L34.7229 30.6867L40.7711 35.3618L45.2641 30.428L45.7252 29.9201L45.7254 29.9205Z" fill="black"/>
</svg>
