<svg width="1184" height="191" viewBox="0 0 1184 191" fill="none" xmlns="http://www.w3.org/2000/svg">
<rect width="1184" height="191" fill="#0B0B0B"/>
<path d="M0 0H342.5C395.243 0 438 42.7568 438 95.5V95.5C438 148.243 395.243 191 342.5 191H0V0Z" fill="url(#paint0_linear_30_2)"/>
<path d="M1184 191L841.5 191C788.757 191 746 148.243 746 95.5V95.5C746 42.7568 788.757 -2.72397e-06 841.5 -3.24262e-07L1184 1.52588e-05L1184 191Z" fill="url(#paint1_linear_30_2)"/>
<path d="M466.207 83V43H481.519C484.41 43 486.812 43.4557 488.726 44.3672C490.653 45.2656 492.092 46.4961 493.042 48.0586C494.006 49.6211 494.488 51.3919 494.488 53.3711C494.488 54.9987 494.175 56.3919 493.55 57.5508C492.925 58.6966 492.085 59.6276 491.031 60.3437C489.976 61.0599 488.798 61.5742 487.496 61.8867V62.2773C488.915 62.3555 490.276 62.7917 491.578 63.5859C492.893 64.3672 493.967 65.474 494.8 66.9062C495.634 68.3385 496.05 70.0703 496.05 72.1016C496.05 74.1719 495.549 76.0339 494.546 77.6875C493.544 79.3281 492.033 80.6237 490.015 81.5742C487.997 82.5247 485.458 83 482.398 83H466.207ZM473.453 76.9453H481.246C483.876 76.9453 485.77 76.444 486.929 75.4414C488.101 74.4258 488.687 73.1237 488.687 71.5352C488.687 70.3503 488.394 69.2826 487.808 68.332C487.222 67.3685 486.389 66.6133 485.308 66.0664C484.227 65.5065 482.938 65.2266 481.441 65.2266H473.453V76.9453ZM473.453 60.0117H480.621C481.871 60.0117 482.997 59.7839 484 59.3281C485.002 58.8594 485.79 58.2018 486.363 57.3555C486.949 56.4961 487.242 55.4805 487.242 54.3086C487.242 52.7591 486.695 51.4831 485.601 50.4805C484.52 49.4779 482.912 48.9766 480.777 48.9766H473.453V60.0117ZM509.6 43V83H502.354V43H509.6ZM544.244 55.7734C543.918 54.7187 543.469 53.7747 542.896 52.9414C542.336 52.0951 541.659 51.3724 540.865 50.7734C540.083 50.1745 539.185 49.7253 538.169 49.4258C537.154 49.1133 536.047 48.957 534.849 48.957C532.701 48.957 530.787 49.4974 529.107 50.5781C527.427 51.6589 526.106 53.2474 525.142 55.3437C524.192 57.4271 523.716 59.9661 523.716 62.9609C523.716 65.9818 524.192 68.5404 525.142 70.6367C526.093 72.7331 527.414 74.3281 529.107 75.4219C530.8 76.5026 532.766 77.043 535.005 77.043C537.037 77.043 538.794 76.6523 540.279 75.8711C541.776 75.0898 542.929 73.9831 543.736 72.5508C544.543 71.1055 544.947 69.4128 544.947 67.4727L546.587 67.7266H535.728V62.0625H551.958V66.8672C551.958 70.2917 551.229 73.2539 549.771 75.7539C548.313 78.2539 546.307 80.181 543.755 81.5352C541.203 82.8763 538.274 83.5469 534.966 83.5469C531.281 83.5469 528.046 82.7201 525.259 81.0664C522.486 79.3997 520.318 77.0365 518.755 73.9766C517.206 70.9036 516.431 67.2578 516.431 63.0391C516.431 59.8099 516.887 56.9258 517.798 54.3867C518.723 51.8477 520.012 49.6927 521.666 47.9219C523.319 46.138 525.259 44.7839 527.486 43.8594C529.712 42.9219 532.134 42.4531 534.751 42.4531C536.965 42.4531 539.029 42.7786 540.943 43.4297C542.857 44.0677 544.556 44.9792 546.041 46.1641C547.538 47.349 548.768 48.7552 549.732 50.3828C550.695 52.0104 551.327 53.8073 551.626 55.7734H544.244ZM594.346 53.9961C594.164 52.2904 593.396 50.9622 592.042 50.0117C590.7 49.0612 588.956 48.5859 586.807 48.5859C585.297 48.5859 584.001 48.8138 582.92 49.2695C581.84 49.7253 581.013 50.3437 580.44 51.125C579.867 51.9062 579.574 52.7982 579.561 53.8008C579.561 54.6341 579.75 55.3568 580.127 55.9687C580.518 56.5807 581.045 57.1016 581.709 57.5312C582.374 57.9479 583.109 58.2995 583.917 58.5859C584.724 58.8724 585.538 59.1133 586.358 59.3086L590.108 60.2461C591.618 60.5977 593.07 61.0729 594.463 61.6719C595.87 62.2708 597.126 63.026 598.233 63.9375C599.353 64.849 600.238 65.9492 600.889 67.2383C601.54 68.5273 601.866 70.0378 601.866 71.7695C601.866 74.1133 601.267 76.1771 600.069 77.9609C598.871 79.7318 597.139 81.1185 594.874 82.1211C592.621 83.1107 589.893 83.6055 586.69 83.6055C583.578 83.6055 580.876 83.1237 578.584 82.1602C576.306 81.1966 574.522 79.7904 573.233 77.9414C571.957 76.0924 571.267 73.8398 571.163 71.1836H578.292C578.396 72.5768 578.825 73.7357 579.581 74.6602C580.336 75.5846 581.319 76.2747 582.53 76.7305C583.754 77.1862 585.121 77.4141 586.631 77.4141C588.207 77.4141 589.587 77.1797 590.772 76.7109C591.97 76.2292 592.907 75.5651 593.584 74.7187C594.262 73.8594 594.607 72.8568 594.62 71.7109C594.607 70.6693 594.301 69.8099 593.702 69.1328C593.103 68.4427 592.263 67.8698 591.182 67.4141C590.114 66.9453 588.864 66.5286 587.432 66.1641L582.881 64.9922C579.587 64.1458 576.983 62.8633 575.069 61.1445C573.168 59.4128 572.217 57.1146 572.217 54.25C572.217 51.8932 572.855 49.8294 574.131 48.0586C575.42 46.2878 577.172 44.9141 579.385 43.9375C581.599 42.9479 584.105 42.4531 586.905 42.4531C589.743 42.4531 592.23 42.9479 594.366 43.9375C596.514 44.9141 598.2 46.2747 599.424 48.0195C600.648 49.7513 601.28 51.7435 601.319 53.9961H594.346ZM612.818 83H605.083L619.166 43H628.111L642.212 83H634.478L623.794 51.2031H623.482L612.818 83ZM613.072 67.3164H634.166V73.1367H613.072V67.3164ZM647.481 83V43H654.727V76.9258H672.344V83H647.481ZM678.633 83V43H704.649V49.0742H685.879V59.9336H703.301V66.0078H685.879V76.9258H704.805V83H678.633ZM479.283 110H486.529V136.133C486.529 138.997 485.852 141.517 484.498 143.691C483.156 145.866 481.268 147.565 478.833 148.789C476.399 150 473.554 150.605 470.298 150.605C467.03 150.605 464.179 150 461.744 148.789C459.309 147.565 457.421 145.866 456.08 143.691C454.738 141.517 454.068 138.997 454.068 136.133V110H461.314V135.527C461.314 137.194 461.679 138.678 462.408 139.98C463.15 141.283 464.192 142.305 465.533 143.047C466.874 143.776 468.462 144.141 470.298 144.141C472.134 144.141 473.723 143.776 475.064 143.047C476.418 142.305 477.46 141.283 478.189 139.98C478.918 138.678 479.283 137.194 479.283 135.527V110ZM494.405 150V110H509.405C512.478 110 515.056 110.573 517.139 111.719C519.236 112.865 520.818 114.44 521.885 116.445C522.966 118.437 523.506 120.703 523.506 123.242C523.506 125.807 522.966 128.086 521.885 130.078C520.805 132.07 519.209 133.639 517.1 134.785C514.991 135.918 512.393 136.484 509.307 136.484H499.366V130.527H508.331C510.127 130.527 511.599 130.215 512.745 129.59C513.89 128.965 514.737 128.105 515.284 127.012C515.844 125.918 516.124 124.661 516.124 123.242C516.124 121.823 515.844 120.573 515.284 119.492C514.737 118.411 513.884 117.572 512.725 116.973C511.579 116.361 510.101 116.055 508.292 116.055H501.651V150H494.405ZM541.685 116.074V110H573.599V116.074H561.236V150H554.048V116.074H541.685ZM613.721 130C613.721 134.31 612.914 138.001 611.299 141.074C609.698 144.134 607.51 146.478 604.737 148.105C601.976 149.733 598.845 150.547 595.342 150.547C591.84 150.547 588.702 149.733 585.928 148.105C583.168 146.465 580.98 144.115 579.366 141.055C577.764 137.982 576.963 134.297 576.963 130C576.963 125.69 577.764 122.005 579.366 118.945C580.98 115.872 583.168 113.522 585.928 111.895C588.702 110.267 591.84 109.453 595.342 109.453C598.845 109.453 601.976 110.267 604.737 111.895C607.51 113.522 609.698 115.872 611.299 118.945C612.914 122.005 613.721 125.69 613.721 130ZM606.436 130C606.436 126.966 605.961 124.408 605.01 122.324C604.073 120.228 602.771 118.646 601.104 117.578C599.437 116.497 597.517 115.957 595.342 115.957C593.168 115.957 591.247 116.497 589.581 117.578C587.914 118.646 586.605 120.228 585.655 122.324C584.717 124.408 584.249 126.966 584.249 130C584.249 133.034 584.717 135.599 585.655 137.695C586.605 139.779 587.914 141.361 589.581 142.441C591.247 143.509 593.168 144.043 595.342 144.043C597.517 144.043 599.437 143.509 601.104 142.441C602.771 141.361 604.073 139.779 605.01 137.695C605.961 135.599 606.436 133.034 606.436 130ZM633.824 150V144.766L647.71 131.152C649.039 129.811 650.145 128.62 651.031 127.578C651.916 126.536 652.58 125.527 653.023 124.551C653.466 123.574 653.687 122.533 653.687 121.426C653.687 120.163 653.401 119.082 652.828 118.184C652.255 117.272 651.467 116.569 650.464 116.074C649.462 115.579 648.322 115.332 647.046 115.332C645.731 115.332 644.579 115.605 643.589 116.152C642.6 116.686 641.832 117.448 641.285 118.438C640.751 119.427 640.484 120.605 640.484 121.973H633.589C633.589 119.434 634.169 117.227 635.328 115.352C636.486 113.477 638.082 112.025 640.113 110.996C642.157 109.967 644.501 109.453 647.144 109.453C649.826 109.453 652.183 109.954 654.214 110.957C656.246 111.96 657.821 113.333 658.941 115.078C660.074 116.823 660.64 118.815 660.64 121.055C660.64 122.552 660.354 124.023 659.781 125.469C659.208 126.914 658.199 128.516 656.753 130.273C655.321 132.031 653.309 134.16 650.718 136.66L643.824 143.672V143.945H661.246V150H633.824ZM682.769 150.762C679.553 150.762 676.792 149.948 674.488 148.32C672.196 146.68 670.432 144.316 669.195 141.23C667.971 138.132 667.359 134.401 667.359 130.039C667.372 125.677 667.99 121.966 669.214 118.906C670.451 115.833 672.216 113.49 674.507 111.875C676.812 110.26 679.566 109.453 682.769 109.453C685.972 109.453 688.726 110.26 691.031 111.875C693.335 113.49 695.1 115.833 696.324 118.906C697.561 121.979 698.179 125.69 698.179 130.039C698.179 134.414 697.561 138.151 696.324 141.25C695.1 144.336 693.335 146.693 691.031 148.32C688.739 149.948 685.985 150.762 682.769 150.762ZM682.769 144.648C685.269 144.648 687.242 143.418 688.687 140.957C690.145 138.483 690.875 134.844 690.875 130.039C690.875 126.862 690.542 124.193 689.878 122.031C689.214 119.87 688.277 118.242 687.066 117.148C685.855 116.042 684.423 115.488 682.769 115.488C680.282 115.488 678.316 116.725 676.871 119.199C675.425 121.66 674.696 125.273 674.683 130.039C674.67 133.229 674.989 135.911 675.64 138.086C676.304 140.26 677.242 141.901 678.453 143.008C679.664 144.102 681.102 144.648 682.769 144.648ZM726.055 142.5V140.391C726.055 138.841 726.381 137.415 727.032 136.113C727.696 134.811 728.659 133.763 729.922 132.969C731.185 132.174 732.715 131.777 734.512 131.777C736.361 131.777 737.911 132.174 739.161 132.969C740.411 133.75 741.355 134.792 741.993 136.094C742.644 137.396 742.969 138.828 742.969 140.391V142.5C742.969 144.049 742.644 145.475 741.993 146.777C741.342 148.079 740.385 149.128 739.122 149.922C737.872 150.716 736.335 151.113 734.512 151.113C732.689 151.113 731.146 150.716 729.883 149.922C728.62 149.128 727.663 148.079 727.012 146.777C726.374 145.475 726.055 144.049 726.055 142.5ZM731.153 140.391V142.5C731.153 143.529 731.4 144.473 731.895 145.332C732.39 146.191 733.262 146.621 734.512 146.621C735.775 146.621 736.641 146.198 737.11 145.352C737.592 144.492 737.833 143.542 737.833 142.5V140.391C737.833 139.349 737.605 138.398 737.149 137.539C736.693 136.667 735.814 136.23 734.512 136.23C733.288 136.23 732.422 136.667 731.915 137.539C731.407 138.398 731.153 139.349 731.153 140.391ZM705.723 119.609V117.5C705.723 115.937 706.055 114.505 706.719 113.203C707.383 111.901 708.347 110.859 709.61 110.078C710.873 109.284 712.403 108.887 714.2 108.887C716.036 108.887 717.579 109.284 718.829 110.078C720.092 110.859 721.042 111.901 721.68 113.203C722.318 114.505 722.637 115.937 722.637 117.5V119.609C722.637 121.172 722.312 122.604 721.661 123.906C721.023 125.195 720.072 126.23 718.809 127.012C717.546 127.793 716.01 128.184 714.2 128.184C712.364 128.184 710.814 127.793 709.551 127.012C708.301 126.23 707.351 125.189 706.7 123.887C706.049 122.585 705.723 121.159 705.723 119.609ZM710.86 117.5V119.609C710.86 120.651 711.101 121.602 711.583 122.461C712.077 123.307 712.95 123.73 714.2 123.73C715.45 123.73 716.309 123.307 716.778 122.461C717.26 121.602 717.5 120.651 717.5 119.609V117.5C717.5 116.458 717.273 115.508 716.817 114.648C716.361 113.776 715.489 113.34 714.2 113.34C712.963 113.34 712.097 113.776 711.602 114.648C711.107 115.521 710.86 116.471 710.86 117.5ZM707.95 150L735.45 110H740.333L712.833 150H707.95Z" fill="url(#paint2_linear_30_2)"/>
<defs>
<linearGradient id="paint0_linear_30_2" x1="-2.26378e-06" y1="87.4332" x2="437.962" y2="92.2365" gradientUnits="userSpaceOnUse">
<stop stop-color="#101010"/>
<stop offset="1" stop-color="#1F1F1F"/>
</linearGradient>
<linearGradient id="paint1_linear_30_2" x1="763.5" y1="91.3365" x2="1183.99" y2="89.4151" gradientUnits="userSpaceOnUse">
<stop stop-color="#1F1F1F"/>
<stop offset="1" stop-color="#101010"/>
</linearGradient>
<linearGradient id="paint2_linear_30_2" x1="592" y1="29" x2="592" y2="163" gradientUnits="userSpaceOnUse">
<stop stop-color="#D5F7FF"/>
<stop offset="0.458333" stop-color="#D5F7FF"/>
<stop offset="1" stop-color="#D5F7FF" stop-opacity="0.57"/>
</linearGradient>
</defs>
</svg>
