<svg width="24" height="24" viewBox="0 0 24 24" fill="none" xmlns="http://www.w3.org/2000/svg">
<path d="M2 23.3C1.44444 23.3 0.972444 23.1053 0.584 22.716C0.194667 22.3276 0 21.8556 0 21.3V18.7667L5.33333 14.0333V23.3H2ZM6.66667 23.3V17.9667H17.3333V23.3H6.66667ZM18.6667 23.3V12.3667L12.9667 7.3L17 3.73333L23.3333 9.36667C23.5556 9.56667 23.7222 9.79422 23.8333 10.0493C23.9444 10.3053 24 10.5778 24 10.8667V21.3C24 21.8556 23.8053 22.3276 23.416 22.716C23.0276 23.1053 22.5556 23.3 22 23.3H18.6667ZM0 16.9667V10.8667C0 10.5778 0.0555556 10.3 0.166667 10.0333C0.277778 9.76667 0.444444 9.54444 0.666667 9.36667L10.6667 0.5C10.8444 0.322222 11.0502 0.194222 11.284 0.116C11.5169 0.0386665 11.7556 0 12 0C12.2444 0 12.4836 0.0386665 12.7173 0.116C12.9502 0.194222 13.1556 0.322222 13.3333 0.5L16 2.86667L0 16.9667Z" fill="black"/>
</svg>
