<svg width="1184" height="191" viewBox="0 0 1184 191" fill="none" xmlns="http://www.w3.org/2000/svg">
<rect y="6.10352e-05" width="1184" height="191" fill="#0B0B0B"/>
<path d="M0 6.10352e-05H342.5C395.243 6.10352e-05 438 42.7569 438 95.5001V95.5001C438 148.243 395.243 191 342.5 191H0V6.10352e-05Z" fill="url(#paint0_linear_25_34)"/>
<path d="M1184 191L841.5 191C788.757 191 746 148.243 746 95.5V95.5C746 42.7568 788.757 -2.72397e-06 841.5 -3.24262e-07L1184 1.52588e-05L1184 191Z" fill="url(#paint1_linear_25_34)"/>
<path d="M436.077 87.9961C435.894 86.2904 435.126 84.9622 433.772 84.0117C432.431 83.0612 430.686 82.5859 428.538 82.5859C427.027 82.5859 425.732 82.8138 424.651 83.2695C423.57 83.7253 422.743 84.3437 422.17 85.125C421.597 85.9062 421.305 86.7982 421.292 87.8008C421.292 88.6341 421.48 89.3568 421.858 89.9687C422.249 90.5807 422.776 91.1016 423.44 91.5312C424.104 91.9479 424.84 92.2995 425.647 92.5859C426.454 92.8724 427.268 93.1133 428.088 93.3086L431.838 94.2461C433.349 94.5977 434.801 95.0729 436.194 95.6719C437.6 96.2708 438.857 97.026 439.963 97.9375C441.083 98.849 441.969 99.9492 442.62 101.238C443.271 102.527 443.596 104.038 443.596 105.77C443.596 108.113 442.997 110.177 441.799 111.961C440.601 113.732 438.87 115.118 436.604 116.121C434.351 117.111 431.624 117.605 428.42 117.605C425.308 117.605 422.607 117.124 420.315 116.16C418.036 115.197 416.252 113.79 414.963 111.941C413.687 110.092 412.997 107.84 412.893 105.184H420.022C420.126 106.577 420.556 107.736 421.311 108.66C422.066 109.585 423.049 110.275 424.26 110.73C425.484 111.186 426.851 111.414 428.362 111.414C429.937 111.414 431.318 111.18 432.502 110.711C433.7 110.229 434.638 109.565 435.315 108.719C435.992 107.859 436.337 106.857 436.35 105.711C436.337 104.669 436.031 103.81 435.432 103.133C434.833 102.443 433.993 101.87 432.913 101.414C431.845 100.945 430.595 100.529 429.163 100.164L424.612 98.9922C421.318 98.1458 418.713 96.8633 416.799 95.1445C414.898 93.4128 413.948 91.1146 413.948 88.25C413.948 85.8932 414.586 83.8294 415.862 82.0586C417.151 80.2878 418.902 78.9141 421.116 77.9375C423.329 76.9479 425.836 76.4531 428.635 76.4531C431.474 76.4531 433.961 76.9479 436.096 77.9375C438.245 78.9141 439.931 80.2747 441.155 82.0195C442.379 83.7513 443.01 85.7435 443.049 87.9961H436.077ZM450.056 77H458.923L470.798 105.984H471.267L483.142 77H492.009V117H485.056V89.5195H484.685L473.63 116.883H468.435L457.38 89.4609H457.009V117H450.056V77ZM505.037 117H497.302L511.384 77H520.33L534.431 117H526.697L516.013 85.2031H515.701L505.037 117ZM505.291 101.316H526.384V107.137H505.291V101.316ZM539.7 117V77H554.7C557.773 77 560.351 77.5339 562.434 78.6016C564.53 79.6693 566.112 81.1667 567.18 83.0937C568.261 85.0078 568.801 87.2409 568.801 89.793C568.801 92.3581 568.254 94.5846 567.161 96.4727C566.08 98.3477 564.485 99.7995 562.375 100.828C560.266 101.844 557.675 102.352 554.602 102.352H543.918V96.3359H553.625C555.422 96.3359 556.894 96.0885 558.04 95.5937C559.185 95.0859 560.032 94.3503 560.579 93.3867C561.139 92.4102 561.418 91.2122 561.418 89.793C561.418 88.3737 561.139 87.1628 560.579 86.1602C560.019 85.1445 559.166 84.3763 558.02 83.8555C556.874 83.3216 555.396 83.0547 553.586 83.0547H546.946V117H539.7ZM560.364 98.875L570.266 117H562.18L552.454 98.875H560.364ZM573.713 83.0742V77H605.627V83.0742H593.264V117H586.077V83.0742H573.713ZM611.78 117V77H619.026V93.9336H637.561V77H644.827V117H637.561V100.008H619.026V117H611.78ZM688.45 97C688.45 101.31 687.642 105.001 686.028 108.074C684.426 111.134 682.239 113.478 679.465 115.105C676.705 116.733 673.573 117.547 670.071 117.547C666.568 117.547 663.43 116.733 660.657 115.105C657.896 113.465 655.709 111.115 654.094 108.055C652.493 104.982 651.692 101.297 651.692 97C651.692 92.6901 652.493 89.0052 654.094 85.9453C655.709 82.8724 657.896 80.5221 660.657 78.8945C663.43 77.2669 666.568 76.4531 670.071 76.4531C673.573 76.4531 676.705 77.2669 679.465 78.8945C682.239 80.5221 684.426 82.8724 686.028 85.9453C687.642 89.0052 688.45 92.6901 688.45 97ZM681.165 97C681.165 93.9661 680.689 91.4076 679.739 89.3242C678.801 87.2279 677.499 85.6458 675.833 84.5781C674.166 83.4974 672.245 82.957 670.071 82.957C667.896 82.957 665.976 83.4974 664.309 84.5781C662.642 85.6458 661.334 87.2279 660.383 89.3242C659.446 91.4076 658.977 93.9661 658.977 97C658.977 100.034 659.446 102.599 660.383 104.695C661.334 106.779 662.642 108.361 664.309 109.441C665.976 110.509 667.896 111.043 670.071 111.043C672.245 111.043 674.166 110.509 675.833 109.441C677.499 108.361 678.801 106.779 679.739 104.695C680.689 102.599 681.165 100.034 681.165 97ZM695.3 77H704.167L716.042 105.984H716.511L728.386 77H737.253V117H730.3V89.5195H729.929L718.875 116.883H713.679L702.625 89.4609H702.253V117H695.3V77ZM745.144 117V77H771.16V83.0742H752.39V93.9336H769.812V100.008H752.39V110.926H771.316V117H745.144Z" fill="url(#paint2_linear_25_34)"/>
<defs>
<linearGradient id="paint0_linear_25_34" x1="-2.26378e-06" y1="87.4333" x2="437.962" y2="92.2365" gradientUnits="userSpaceOnUse">
<stop stop-color="#101010"/>
<stop offset="1" stop-color="#1F1F1F"/>
</linearGradient>
<linearGradient id="paint1_linear_25_34" x1="763.5" y1="91.3365" x2="1183.99" y2="89.4151" gradientUnits="userSpaceOnUse">
<stop stop-color="#1F1F1F"/>
<stop offset="1" stop-color="#101010"/>
</linearGradient>
<linearGradient id="paint2_linear_25_34" x1="592.5" y1="63" x2="592.5" y2="130" gradientUnits="userSpaceOnUse">
<stop stop-color="#D5F7FF"/>
<stop offset="0.458333" stop-color="#D5F7FF"/>
<stop offset="1" stop-color="#D5F7FF" stop-opacity="0.29"/>
</linearGradient>
</defs>
</svg>
