<svg width="605" height="191" viewBox="0 0 605 191" fill="none" xmlns="http://www.w3.org/2000/svg">
<rect y="6.10352e-05" width="604.978" height="191" fill="#0B0B0B"/>
<path d="M0 6.10352e-05H128.301C181.044 6.10352e-05 223.801 42.7569 223.801 95.5001V95.5001C223.801 148.243 181.044 191 128.301 191H0V6.10352e-05Z" fill="url(#paint0_linear_26_75)"/>
<path d="M604.978 191L476.677 191C423.934 191 381.177 148.243 381.177 95.5V95.5C381.177 42.7568 423.934 -8.62086e-07 476.677 3.83437e-06L604.978 1.52588e-05L604.978 191Z" fill="url(#paint1_linear_26_75)"/>
<path d="M146.577 86.9961C146.394 85.2904 145.626 83.9622 144.272 83.0117C142.931 82.0612 141.186 81.5859 139.038 81.5859C137.527 81.5859 136.232 81.8138 135.151 82.2695C134.07 82.7253 133.243 83.3437 132.67 84.125C132.097 84.9062 131.805 85.7982 131.792 86.8008C131.792 87.6341 131.98 88.3568 132.358 88.9687C132.749 89.5807 133.276 90.1016 133.94 90.5312C134.604 90.9479 135.34 91.2995 136.147 91.5859C136.954 91.8724 137.768 92.1133 138.588 92.3086L142.338 93.2461C143.849 93.5977 145.301 94.0729 146.694 94.6719C148.1 95.2708 149.357 96.026 150.463 96.9375C151.583 97.849 152.469 98.9492 153.12 100.238C153.771 101.527 154.096 103.038 154.096 104.77C154.096 107.113 153.497 109.177 152.299 110.961C151.101 112.732 149.37 114.118 147.104 115.121C144.851 116.111 142.124 116.605 138.92 116.605C135.808 116.605 133.107 116.124 130.815 115.16C128.536 114.197 126.752 112.79 125.463 110.941C124.187 109.092 123.497 106.84 123.393 104.184H130.522C130.626 105.577 131.056 106.736 131.811 107.66C132.566 108.585 133.549 109.275 134.76 109.73C135.984 110.186 137.351 110.414 138.862 110.414C140.437 110.414 141.818 110.18 143.002 109.711C144.2 109.229 145.138 108.565 145.815 107.719C146.492 106.859 146.837 105.857 146.85 104.711C146.837 103.669 146.531 102.81 145.932 102.133C145.333 101.443 144.493 100.87 143.413 100.414C142.345 99.9453 141.095 99.5286 139.663 99.1641L135.112 97.9922C131.818 97.1458 129.213 95.8633 127.299 94.1445C125.398 92.4128 124.448 90.1146 124.448 87.25C124.448 84.8932 125.086 82.8294 126.362 81.0586C127.651 79.2878 129.402 77.9141 131.616 76.9375C133.829 75.9479 136.336 75.4531 139.135 75.4531C141.974 75.4531 144.461 75.9479 146.596 76.9375C148.745 77.9141 150.431 79.2747 151.655 81.0195C152.879 82.7513 153.51 84.7435 153.549 86.9961H146.577ZM160.556 76H169.423L181.298 104.984H181.767L193.642 76H202.509V116H195.556V88.5195H195.185L184.13 115.883H178.935L167.88 88.4609H167.509V116H160.556V76ZM215.537 116H207.802L221.884 76H230.83L244.931 116H237.197L226.513 84.2031H226.201L215.537 116ZM215.791 100.316H236.884V106.137H215.791V100.316ZM250.2 116V76H265.2C268.273 76 270.851 76.5339 272.934 77.6016C275.03 78.6693 276.612 80.1667 277.68 82.0937C278.761 84.0078 279.301 86.2409 279.301 88.793C279.301 91.3581 278.754 93.5846 277.661 95.4727C276.58 97.3477 274.985 98.7995 272.875 99.8281C270.766 100.844 268.175 101.352 265.102 101.352H254.418V95.3359H264.125C265.922 95.3359 267.394 95.0885 268.54 94.5937C269.685 94.0859 270.532 93.3503 271.079 92.3867C271.639 91.4102 271.918 90.2122 271.918 88.793C271.918 87.3737 271.639 86.1628 271.079 85.1602C270.519 84.1445 269.666 83.3763 268.52 82.8555C267.374 82.3216 265.896 82.0547 264.086 82.0547H257.446V116H250.2ZM270.864 97.875L280.766 116H272.68L262.954 97.875H270.864ZM284.213 82.0742V76H316.127V82.0742H303.764V116H296.577V82.0742H284.213ZM322.28 116V76H329.526V92.9336H348.061V76H355.327V116H348.061V99.0078H329.526V116H322.28ZM398.95 96C398.95 100.31 398.142 104.001 396.528 107.074C394.926 110.134 392.739 112.478 389.965 114.105C387.205 115.733 384.073 116.547 380.571 116.547C377.068 116.547 373.93 115.733 371.157 114.105C368.396 112.465 366.209 110.115 364.594 107.055C362.993 103.982 362.192 100.297 362.192 96C362.192 91.6901 362.993 88.0052 364.594 84.9453C366.209 81.8724 368.396 79.5221 371.157 77.8945C373.93 76.2669 377.068 75.4531 380.571 75.4531C384.073 75.4531 387.205 76.2669 389.965 77.8945C392.739 79.5221 394.926 81.8724 396.528 84.9453C398.142 88.0052 398.95 91.6901 398.95 96ZM391.665 96C391.665 92.9661 391.189 90.4076 390.239 88.3242C389.301 86.2279 387.999 84.6458 386.333 83.5781C384.666 82.4974 382.745 81.957 380.571 81.957C378.396 81.957 376.476 82.4974 374.809 83.5781C373.142 84.6458 371.834 86.2279 370.883 88.3242C369.946 90.4076 369.477 92.9661 369.477 96C369.477 99.0339 369.946 101.599 370.883 103.695C371.834 105.779 373.142 107.361 374.809 108.441C376.476 109.509 378.396 110.043 380.571 110.043C382.745 110.043 384.666 109.509 386.333 108.441C387.999 107.361 389.301 105.779 390.239 103.695C391.189 101.599 391.665 99.0339 391.665 96ZM405.8 76H414.667L426.542 104.984H427.011L438.886 76H447.753V116H440.8V88.5195H440.429L429.375 115.883H424.179L413.125 88.4609H412.753V116H405.8V76ZM455.644 116V76H481.66V82.0742H462.89V92.9336H480.312V99.0078H462.89V109.926H481.816V116H455.644Z" fill="url(#paint2_linear_26_75)"/>
<defs>
<linearGradient id="paint0_linear_26_75" x1="-1.15671e-06" y1="87.4333" x2="223.801" y2="88.6875" gradientUnits="userSpaceOnUse">
<stop stop-color="#101010"/>
<stop offset="1" stop-color="#1F1F1F"/>
</linearGradient>
<linearGradient id="paint1_linear_26_75" x1="390.119" y1="91.3365" x2="604.978" y2="90.8349" gradientUnits="userSpaceOnUse">
<stop stop-color="#1F1F1F"/>
<stop offset="1" stop-color="#101010"/>
</linearGradient>
<linearGradient id="paint2_linear_26_75" x1="303" y1="62" x2="303" y2="129" gradientUnits="userSpaceOnUse">
<stop stop-color="#D5F7FF"/>
<stop offset="0.458333" stop-color="#D5F7FF"/>
<stop offset="1" stop-color="#D5F7FF" stop-opacity="0.29"/>
</linearGradient>
</defs>
</svg>
