<svg width="20" height="32" viewBox="0 0 20 32" fill="none" xmlns="http://www.w3.org/2000/svg">
<path d="M2.85714 31.4286C2.07143 31.4286 1.39905 31.149 0.84 30.59C0.28 30.03 0 29.3571 0 28.5714V2.85714C0 2.07143 0.28 1.39857 0.84 0.838571C1.39905 0.279524 2.07143 0 2.85714 0H17.1429C17.9286 0 18.6014 0.279524 19.1614 0.838571C19.7205 1.39857 20 2.07143 20 2.85714V28.5714C20 29.3571 19.7205 30.03 19.1614 30.59C18.6014 31.149 17.9286 31.4286 17.1429 31.4286H2.85714ZM2.85714 24.2857H17.1429V7.14286H2.85714V24.2857Z" fill="black"/>
</svg>
