<svg width="235" height="46" viewBox="0 0 235 46" fill="none" xmlns="http://www.w3.org/2000/svg">
<path d="M0.5 6.5625H-0.5V7.5625H0.5V6.5625ZM0.5 1.25V0.25H-0.5V1.25H0.5ZM27.5625 1.25H28.5625V0.25H27.5625V1.25ZM27.5625 6.5625V7.5625H28.5625V6.5625H27.5625ZM16.75 6.5625V5.5625H15.75V6.5625H16.75ZM16.75 45V46H17.75V45H16.75ZM11.25 45H10.25V46H11.25V45ZM11.25 6.5625H12.25V5.5625H11.25V6.5625ZM1.5 6.5625V1.25H-0.5V6.5625H1.5ZM0.5 2.25H27.5625V0.25H0.5V2.25ZM26.5625 1.25V6.5625H28.5625V1.25H26.5625ZM27.5625 5.5625H16.75V7.5625H27.5625V5.5625ZM15.75 6.5625V45H17.75V6.5625H15.75ZM16.75 44H11.25V46H16.75V44ZM12.25 45V6.5625H10.25V45H12.25ZM11.25 5.5625H0.5V7.5625H11.25V5.5625ZM31.1875 45H30.1875V46H31.1875V45ZM31.1875 1.25V0.25H30.1875V1.25H31.1875ZM53.9375 1.25H54.9375V0.25H53.9375V1.25ZM53.9375 6.625V7.625H54.9375V6.625H53.9375ZM36.625 6.625V5.625H35.625V6.625H36.625ZM36.625 20.5H35.625V21.5H36.625V20.5ZM48.0625 20.5H49.0625V19.5H48.0625V20.5ZM48.0625 25.9375V26.9375H49.0625V25.9375H48.0625ZM36.625 25.9375V24.9375H35.625V25.9375H36.625ZM36.625 39.625H35.625V40.625H36.625V39.625ZM53.9375 39.625H54.9375V38.625H53.9375V39.625ZM53.9375 45V46H54.9375V45H53.9375ZM32.1875 45V1.25H30.1875V45H32.1875ZM31.1875 2.25H53.9375V0.25H31.1875V2.25ZM52.9375 1.25V6.625H54.9375V1.25H52.9375ZM53.9375 5.625H36.625V7.625H53.9375V5.625ZM35.625 6.625V20.5H37.625V6.625H35.625ZM36.625 21.5H48.0625V19.5H36.625V21.5ZM47.0625 20.5V25.9375H49.0625V20.5H47.0625ZM48.0625 24.9375H36.625V26.9375H48.0625V24.9375ZM35.625 25.9375V39.625H37.625V25.9375H35.625ZM36.625 40.625H53.9375V38.625H36.625V40.625ZM52.9375 39.625V45H54.9375V39.625H52.9375ZM53.9375 44H31.1875V46H53.9375V44ZM61.5 40.75L60.7122 41.3659L60.7167 41.3717L60.7212 41.3773L61.5 40.75ZM71.25 45.3125L71.2398 46.3124L72.25 46.3228V45.3125H71.25ZM71.25 39.9375H72.25V38.9375H71.25V39.9375ZM65 36.125L64.1056 36.5722L64.1085 36.578L65 36.125ZM66.1875 8.4375L65.4804 7.73039L65.469 7.7418L65.458 7.75356L66.1875 8.4375ZM71.25 6.3125L71.2708 7.31228L72.25 7.29188V6.3125H71.25ZM71.25 0.9375H72.25V-0.0537665L71.2588 -0.0624615L71.25 0.9375ZM60.625 6.8125L61.4856 7.32182L61.4865 7.32031L60.625 6.8125ZM74.3125 45.3125H73.3125V46.3125H74.3125V45.3125ZM82.875 41.5L83.6057 42.1827L83.6083 42.1799L82.875 41.5ZM86.0625 33.625H87.0625V32.8373L86.2968 32.6528L86.0625 33.625ZM80.875 32.375L81.1093 31.4028L79.875 31.1054V32.375H80.875ZM80.8125 33.375L79.8319 33.1789L79.8211 33.2332L79.8163 33.2884L80.8125 33.375ZM80.4375 35.5L79.4977 35.1583L79.4895 35.1807L79.4824 35.2036L80.4375 35.5ZM78.3125 38.4375L77.7282 37.626L77.7203 37.6317L77.7125 37.6375L78.3125 38.4375ZM74.3125 39.9375L74.1642 38.9486L73.3125 39.0763V39.9375H74.3125ZM74.3125 6.3125H73.3125V7.09984L74.0779 7.28458L74.3125 6.3125ZM76.125 6.75L76.5122 5.82802L76.438 5.79682L76.3596 5.77792L76.125 6.75ZM80.4375 11.125L81.3862 10.8088L81.3786 10.7859L81.3699 10.7635L80.4375 11.125ZM80.8125 13.125H81.8125V13.0751L81.8075 13.0255L80.8125 13.125ZM80.8125 14.125H79.8125V15.4206L81.0659 15.0924L80.8125 14.125ZM86.0625 12.75L86.3159 13.7174L87.0625 13.5218V12.75H86.0625ZM82.125 4.25L82.8147 3.52586L82.8072 3.51875L82.7996 3.51179L82.125 4.25ZM74.3125 0.9375V-0.0625H73.3125V0.9375H74.3125ZM57.8125 33.6875C57.8125 36.3702 58.812 38.9354 60.7122 41.3659L62.2878 40.1341C60.6047 37.9813 59.8125 35.8381 59.8125 33.6875H57.8125ZM60.7212 41.3773C63.338 44.6258 66.878 46.2679 71.2398 46.3124L71.2602 44.3126C67.4553 44.2737 64.4953 42.8742 62.2788 40.1227L60.7212 41.3773ZM72.25 45.3125V39.9375H70.25V45.3125H72.25ZM71.25 38.9375C69.9631 38.9375 68.9108 38.6545 68.052 38.1307C67.1937 37.6071 66.4676 36.8057 65.8915 35.672L64.1085 36.578C64.824 37.986 65.7854 39.0908 67.0105 39.8381C68.2351 40.5851 69.6619 40.9375 71.25 40.9375V38.9375ZM65.8944 35.6778C65.4767 34.8424 65.3125 34.187 65.3125 33.6875H63.3125C63.3125 34.6047 63.6066 35.5743 64.1056 36.5722L65.8944 35.6778ZM65.3125 33.6875V12.625H63.3125V33.6875H65.3125ZM65.3125 12.625C65.3125 11.4808 65.7948 10.3185 66.917 9.12144L65.458 7.75356C64.0802 9.22319 63.3125 10.8525 63.3125 12.625H65.3125ZM66.8946 9.14461C68.0814 7.95779 69.5205 7.34875 71.2708 7.31228L71.2292 5.31272C68.9795 5.35959 67.0436 6.16721 65.4804 7.73039L66.8946 9.14461ZM72.25 6.3125V0.9375H70.25V6.3125H72.25ZM71.2588 -0.0624615C66.1665 -0.107131 62.2857 2.02605 59.7635 6.30469L61.4865 7.32031C63.631 3.68228 66.8335 1.8988 71.2412 1.93746L71.2588 -0.0624615ZM59.7644 6.30318C58.4911 8.45467 57.8125 10.5671 57.8125 12.625H59.8125C59.8125 11.0162 60.3422 9.25366 61.4856 7.32182L59.7644 6.30318ZM57.8125 12.625V33.6875H59.8125V12.625H57.8125ZM74.3125 46.3125C77.9361 46.3125 81.0508 44.9168 83.6057 42.1827L82.1443 40.8173C79.9492 43.1665 77.3555 44.3125 74.3125 44.3125V46.3125ZM83.6083 42.1799C85.8941 39.7148 87.0625 36.8507 87.0625 33.625H85.0625C85.0625 36.316 84.1059 38.7018 82.1417 40.8201L83.6083 42.1799ZM86.2968 32.6528L81.1093 31.4028L80.6407 33.3472L85.8282 34.5972L86.2968 32.6528ZM79.875 32.375C79.875 32.825 79.8529 33.074 79.8319 33.1789L81.7931 33.5711C81.8554 33.2593 81.875 32.8417 81.875 32.375H79.875ZM79.8163 33.2884C79.7347 34.2267 79.6179 34.8277 79.4977 35.1583L81.3773 35.8417C81.5904 35.2557 81.7237 34.44 81.8087 33.4616L79.8163 33.2884ZM79.4824 35.2036C79.1728 36.2013 78.5964 37.0009 77.7282 37.626L78.8968 39.249C80.112 38.3741 80.9522 37.2154 81.3926 35.7964L79.4824 35.2036ZM77.7125 37.6375C76.7858 38.3325 76.0233 38.6697 75.4142 38.7611L75.7108 40.7389C76.7683 40.5803 77.8392 40.0425 78.9125 39.2375L77.7125 37.6375ZM75.4142 38.7611L74.1642 38.9486L74.4608 40.9264L75.7108 40.7389L75.4142 38.7611ZM73.3125 39.9375V45.3125H75.3125V39.9375H73.3125ZM74.3125 6.3125C74.0779 7.28458 74.0779 7.28458 74.0779 7.28458C74.0779 7.28458 74.0779 7.28459 74.0779 7.28459C74.0779 7.28459 74.0779 7.28459 74.0779 7.2846C74.0779 7.2846 74.078 7.2846 74.078 7.28461C74.0781 7.28464 74.078 7.28461 74.0781 7.28464C74.0783 7.28469 74.0781 7.28463 74.0783 7.28469C74.0791 7.28488 74.078 7.28462 74.0789 7.28482C74.0805 7.28521 74.0779 7.2846 74.0796 7.28501C74.0847 7.28623 74.0765 7.28425 74.0818 7.28554C74.0851 7.28632 74.0814 7.28544 74.0849 7.28629C74.0916 7.2879 74.0859 7.28653 74.0938 7.28843C74.1296 7.29708 74.0692 7.28248 74.1062 7.29142C74.1262 7.29624 74.1169 7.294 74.1416 7.29996C74.1475 7.3014 74.1575 7.3038 74.1646 7.30552C74.1651 7.30564 74.1656 7.30577 74.1661 7.30589C74.1667 7.30602 74.1672 7.30614 74.1677 7.30627C74.1695 7.30669 74.1691 7.30661 74.1709 7.30704C74.1769 7.3085 74.1713 7.30714 74.1774 7.30861C74.1986 7.31373 74.1697 7.30674 74.1911 7.31193C74.2711 7.33123 74.2339 7.32225 74.3327 7.34611C74.4264 7.36871 74.4184 7.36679 74.531 7.39396C74.6109 7.41326 74.5667 7.40257 74.6513 7.42301C74.6577 7.42455 74.7748 7.4528 74.7859 7.45548C74.7877 7.45593 74.8554 7.47227 74.8584 7.473C74.9591 7.49729 74.8327 7.4668 74.9345 7.49137C74.9356 7.49162 74.9433 7.49348 74.9443 7.49373C74.9695 7.49981 74.9289 7.49001 74.9541 7.4961C74.9624 7.49808 74.9656 7.49887 74.9739 7.50088C74.9811 7.5026 75.0067 7.5088 75.0142 7.5106C75.061 7.5219 75.0494 7.51909 75.0974 7.53068C75.1471 7.54268 75.1332 7.53932 75.1841 7.55161C75.1957 7.5544 75.1836 7.55149 75.1952 7.55429C75.2005 7.55555 75.2011 7.55571 75.2064 7.55698C75.235 7.56389 75.2001 7.55547 75.2288 7.5624C75.2307 7.56285 75.2326 7.56331 75.2345 7.56376C75.2363 7.56422 75.2382 7.56467 75.2401 7.56513C75.242 7.56559 75.2439 7.56604 75.2458 7.5665C75.2477 7.56696 75.2496 7.56741 75.2515 7.56787C75.2759 7.57377 75.2385 7.56473 75.2629 7.57063C75.2689 7.57208 75.2684 7.57195 75.2744 7.5734C75.3249 7.5856 75.2469 7.56677 75.2975 7.57898C75.2993 7.57942 75.3073 7.58135 75.3092 7.58179C75.3111 7.58226 75.313 7.58273 75.315 7.5832C75.3169 7.58367 75.3189 7.58414 75.3209 7.58462C75.3411 7.5895 75.3124 7.58256 75.3326 7.58745C75.3346 7.58793 75.3365 7.5884 75.3385 7.58888C75.3405 7.58935 75.3424 7.58983 75.3444 7.5903C75.4007 7.6039 75.3118 7.58243 75.3682 7.59604C75.3794 7.59874 75.405 7.60492 75.4164 7.60769C75.4183 7.60815 75.4389 7.61311 75.4409 7.61359C75.514 7.63124 75.3923 7.60187 75.4656 7.61954C75.4676 7.62004 75.4697 7.62054 75.4718 7.62104C75.4738 7.62154 75.4759 7.62204 75.478 7.62254C75.507 7.62956 75.4614 7.61853 75.4904 7.62555C75.4925 7.62605 75.4946 7.62656 75.4967 7.62706C75.4988 7.62757 75.5009 7.62807 75.503 7.62858C75.5051 7.62908 75.5072 7.62959 75.5093 7.63009C75.5114 7.6306 75.5135 7.63111 75.5156 7.63161C75.572 7.64524 75.4843 7.62408 75.5409 7.63773C75.5445 7.63861 75.55 7.63992 75.5536 7.64081C75.5717 7.64517 75.5483 7.63952 75.5664 7.6439C75.5825 7.64778 75.6536 7.66493 75.6709 7.6691C75.7787 7.69513 75.7778 7.69492 75.8904 7.72208L76.3596 5.77792C76.3066 5.76511 76.3 5.76352 76.2481 5.751C76.2249 5.74538 76.2167 5.74341 76.1937 5.73786C76.181 5.7348 76.1794 5.73442 76.1668 5.73137C76.1605 5.72986 76.1597 5.72967 76.1535 5.72815C76.1512 5.72761 76.149 5.72708 76.1468 5.72654C76.1446 5.72601 76.1424 5.72547 76.1402 5.72494C76.1057 5.71663 76.1216 5.72047 76.0875 5.71223C76.0654 5.70688 76.0576 5.70501 76.0357 5.69973C75.9877 5.68813 75.9817 5.6867 75.9348 5.67538C75.769 5.63535 75.7136 5.62199 75.5667 5.58651C75.5649 5.58608 75.5631 5.58566 75.5614 5.58523C75.5596 5.58481 75.5578 5.58438 75.5561 5.58395C75.5551 5.58372 75.5465 5.58164 75.5455 5.58141C75.5347 5.5788 75.5354 5.57896 75.5246 5.57636C75.5032 5.5712 75.5046 5.57152 75.4835 5.56643C75.472 5.56365 75.4142 5.5497 75.4038 5.5472C75.3248 5.52812 75.3295 5.52926 75.2551 5.51132C75.1032 5.47463 75.1334 5.48192 75.0003 5.44979C74.8394 5.41095 74.7458 5.38837 74.6604 5.36776C74.6049 5.35436 74.6121 5.3561 74.5755 5.34725C74.5669 5.34518 74.5581 5.34306 74.5542 5.34213C74.5514 5.34144 74.5506 5.34125 74.5489 5.34085C74.5481 5.34065 74.5481 5.34065 74.5476 5.34052C74.5474 5.34048 74.5474 5.34047 74.5473 5.34044C74.5472 5.34044 74.5472 5.34043 74.5472 5.34042C74.5472 5.34042 74.5472 5.34042 74.5471 5.34042C74.5471 5.34042 74.5471 5.34042 74.3125 6.3125ZM75.7378 7.67198C77.5798 8.44565 78.8151 9.70685 79.5051 11.4865L81.3699 10.7635C80.4766 8.45982 78.8368 6.80435 76.5122 5.82802L75.7378 7.67198ZM79.4888 11.4412C79.6225 11.8423 79.7377 12.4272 79.8175 13.2245L81.8075 13.0255C81.7206 12.1561 81.5858 11.4077 81.3862 10.8088L79.4888 11.4412ZM79.8125 13.125V14.125H81.8125V13.125H79.8125ZM81.0659 15.0924L86.3159 13.7174L85.8091 11.7826L80.5591 13.1576L81.0659 15.0924ZM87.0625 12.75C87.0625 9.26913 85.6064 6.18471 82.8147 3.52586L81.4353 4.97414C83.8936 7.31529 85.0625 9.89753 85.0625 12.75H87.0625ZM82.7996 3.51179C80.2324 1.16597 77.3962 -0.0625 74.3125 -0.0625V1.9375C76.8122 1.9375 79.1842 2.91736 81.4504 4.98821L82.7996 3.51179ZM73.3125 0.9375V6.3125H75.3125V0.9375H73.3125ZM90.5 45H89.5V46H90.5V45ZM90.5 1.25V0.25H89.5V1.25H90.5ZM95.9375 1.25H96.9375V0.25H95.9375V1.25ZM95.9375 20.3125H94.9375V21.3125H95.9375V20.3125ZM101.562 20.3125H102.562V19.3125H101.562V20.3125ZM101.562 25.625V26.625H102.562V25.625H101.562ZM95.9375 25.625V24.625H94.9375V25.625H95.9375ZM95.9375 45V46H96.9375V45H95.9375ZM104.688 25.625H103.688V26.625H104.688V25.625ZM104.688 20.3125V19.3125H103.688V20.3125H104.688ZM110.25 20.3125V21.3125H111.25V20.3125H110.25ZM110.25 1.25V0.25H109.25V1.25H110.25ZM115.75 1.25H116.75V0.25H115.75V1.25ZM115.75 45V46H116.75V45H115.75ZM110.25 45H109.25V46H110.25V45ZM110.25 25.625H111.25V24.625H110.25V25.625ZM91.5 45V1.25H89.5V45H91.5ZM90.5 2.25H95.9375V0.25H90.5V2.25ZM94.9375 1.25V20.3125H96.9375V1.25H94.9375ZM95.9375 21.3125H101.562V19.3125H95.9375V21.3125ZM100.562 20.3125V25.625H102.562V20.3125H100.562ZM101.562 24.625H95.9375V26.625H101.562V24.625ZM94.9375 25.625V45H96.9375V25.625H94.9375ZM95.9375 44H90.5V46H95.9375V44ZM105.688 25.625V20.3125H103.688V25.625H105.688ZM104.688 21.3125H110.25V19.3125H104.688V21.3125ZM111.25 20.3125V1.25H109.25V20.3125H111.25ZM110.25 2.25H115.75V0.25H110.25V2.25ZM114.75 1.25V45H116.75V1.25H114.75ZM115.75 44H110.25V46H115.75V44ZM111.25 45V25.625H109.25V45H111.25ZM110.25 24.625H104.688V26.625H110.25V24.625ZM122.438 38.625L122.862 39.5305L122.873 39.5251L122.885 39.5194L122.438 38.625ZM127.125 40.3125L128.048 39.9279L128.037 39.9017L128.025 39.8762L127.125 40.3125ZM125.5 44.875L125.919 45.783L125.927 45.7791L125.936 45.7752L125.5 44.875ZM120.812 43.3125L121.713 42.8769L121.707 42.8653L120.812 43.3125ZM121.438 41.8125C121.438 41.2133 121.569 40.7653 121.785 40.4221C121.999 40.0801 122.338 39.7759 122.862 39.5305L122.013 37.7195C121.203 38.0991 120.543 38.6386 120.09 39.3591C119.639 40.0785 119.438 40.9117 119.438 41.8125H121.438ZM122.885 39.5194C123.262 39.3306 123.61 39.25 123.938 39.25V37.25C123.265 37.25 122.613 37.4194 121.99 37.7306L122.885 39.5194ZM123.938 39.25C124.504 39.25 124.939 39.3814 125.285 39.6052C125.634 39.8308 125.955 40.1915 126.225 40.7488L128.025 39.8762C127.628 39.0585 127.085 38.3879 126.371 37.9261C125.655 37.4624 124.829 37.25 123.938 37.25V39.25ZM126.202 40.6971C126.364 41.0855 126.438 41.4552 126.438 41.8125H128.438C128.438 41.1698 128.303 40.5395 128.048 39.9279L126.202 40.6971ZM126.438 41.8125C126.438 42.3648 126.313 42.7815 126.108 43.106C125.902 43.4313 125.574 43.7282 125.064 43.9748L125.936 45.7752C126.717 45.3968 127.358 44.8708 127.798 44.1753C128.239 43.4789 128.438 42.6769 128.438 41.8125H126.438ZM125.081 43.967C124.646 44.168 124.268 44.25 123.938 44.25V46.25C124.607 46.25 125.271 46.082 125.919 45.783L125.081 43.967ZM123.938 44.25C123.359 44.25 122.924 44.1233 122.589 43.9157C122.256 43.7088 121.957 43.3817 121.713 42.8769L119.912 43.7481C120.293 44.5349 120.828 45.1766 121.536 45.6155C122.242 46.0538 123.058 46.25 123.938 46.25V44.25ZM121.707 42.8653C121.518 42.4876 121.438 42.1397 121.438 41.8125H119.438C119.438 42.4853 119.607 43.1374 119.918 43.7597L121.707 42.8653ZM134.75 40.75L133.962 41.3659L133.967 41.3717L133.971 41.3773L134.75 40.75ZM144.5 45.3125L144.49 46.3124L145.5 46.3228V45.3125H144.5ZM144.5 39.9375H145.5V38.9375H144.5V39.9375ZM138.25 36.125L137.356 36.5722L137.359 36.578L138.25 36.125ZM139.438 8.4375L138.73 7.73039L138.719 7.7418L138.708 7.75356L139.438 8.4375ZM144.5 6.3125L144.521 7.31228L145.5 7.29188V6.3125H144.5ZM144.5 0.9375H145.5V-0.0537665L144.509 -0.0624615L144.5 0.9375ZM133.875 6.8125L134.736 7.32182L134.736 7.32031L133.875 6.8125ZM147.562 45.3125H146.562V46.3125H147.562V45.3125ZM156.125 41.5L156.856 42.1827L156.858 42.1799L156.125 41.5ZM159.312 33.625H160.312V32.8373L159.547 32.6528L159.312 33.625ZM154.125 32.375L154.359 31.4028L153.125 31.1054V32.375H154.125ZM154.062 33.375L153.082 33.1789L153.071 33.2332L153.066 33.2884L154.062 33.375ZM153.688 35.5L152.748 35.1583L152.74 35.1807L152.732 35.2036L153.688 35.5ZM151.562 38.4375L150.978 37.626L150.97 37.6317L150.963 37.6375L151.562 38.4375ZM147.562 39.9375L147.414 38.9486L146.562 39.0763V39.9375H147.562ZM147.562 6.3125H146.562V7.09984L147.328 7.28458L147.562 6.3125ZM149.375 6.75L149.762 5.82802L149.688 5.79682L149.61 5.77792L149.375 6.75ZM153.688 11.125L154.636 10.8088L154.629 10.7859L154.62 10.7635L153.688 11.125ZM154.062 13.125H155.062V13.0751L155.058 13.0255L154.062 13.125ZM154.062 14.125H153.062V15.4206L154.316 15.0924L154.062 14.125ZM159.312 12.75L159.566 13.7174L160.312 13.5218V12.75H159.312ZM155.375 4.25L156.065 3.52586L156.057 3.51875L156.05 3.51179L155.375 4.25ZM147.562 0.9375V-0.0625H146.562V0.9375H147.562ZM131.062 33.6875C131.062 36.3702 132.062 38.9354 133.962 41.3659L135.538 40.1341C133.855 37.9813 133.062 35.8381 133.062 33.6875H131.062ZM133.971 41.3773C136.588 44.6258 140.128 46.2679 144.49 46.3124L144.51 44.3126C140.705 44.2737 137.745 42.8742 135.529 40.1227L133.971 41.3773ZM145.5 45.3125V39.9375H143.5V45.3125H145.5ZM144.5 38.9375C143.213 38.9375 142.161 38.6545 141.302 38.1307C140.444 37.6071 139.718 36.8057 139.141 35.672L137.359 36.578C138.074 37.986 139.035 39.0908 140.26 39.8381C141.485 40.5851 142.912 40.9375 144.5 40.9375V38.9375ZM139.144 35.6778C138.727 34.8424 138.562 34.187 138.562 33.6875H136.562C136.562 34.6047 136.857 35.5743 137.356 36.5722L139.144 35.6778ZM138.562 33.6875V12.625H136.562V33.6875H138.562ZM138.562 12.625C138.562 11.4808 139.045 10.3185 140.167 9.12144L138.708 7.75356C137.33 9.22319 136.562 10.8525 136.562 12.625H138.562ZM140.145 9.14461C141.331 7.95779 142.771 7.34875 144.521 7.31228L144.479 5.31272C142.229 5.35959 140.294 6.16721 138.73 7.73039L140.145 9.14461ZM145.5 6.3125V0.9375H143.5V6.3125H145.5ZM144.509 -0.0624615C139.417 -0.107131 135.536 2.02605 133.014 6.30469L134.736 7.32031C136.881 3.68228 140.083 1.8988 144.491 1.93746L144.509 -0.0624615ZM133.014 6.30318C131.741 8.45467 131.062 10.5671 131.062 12.625H133.062C133.062 11.0162 133.592 9.25366 134.736 7.32182L133.014 6.30318ZM131.062 12.625V33.6875H133.062V12.625H131.062ZM147.562 46.3125C151.186 46.3125 154.301 44.9168 156.856 42.1827L155.394 40.8173C153.199 43.1665 150.606 44.3125 147.562 44.3125V46.3125ZM156.858 42.1799C159.144 39.7148 160.312 36.8507 160.312 33.625H158.312C158.312 36.316 157.356 38.7018 155.392 40.8201L156.858 42.1799ZM159.547 32.6528L154.359 31.4028L153.891 33.3472L159.078 34.5972L159.547 32.6528ZM153.125 32.375C153.125 32.825 153.103 33.074 153.082 33.1789L155.043 33.5711C155.105 33.2593 155.125 32.8417 155.125 32.375H153.125ZM153.066 33.2884C152.985 34.2267 152.868 34.8277 152.748 35.1583L154.627 35.8417C154.84 35.2557 154.974 34.44 155.059 33.4616L153.066 33.2884ZM152.732 35.2036C152.423 36.2013 151.846 37.0009 150.978 37.626L152.147 39.249C153.362 38.3741 154.202 37.2154 154.643 35.7964L152.732 35.2036ZM150.963 37.6375C150.036 38.3325 149.273 38.6697 148.664 38.7611L148.961 40.7389C150.018 40.5803 151.089 40.0425 152.162 39.2375L150.963 37.6375ZM148.664 38.7611L147.414 38.9486L147.711 40.9264L148.961 40.7389L148.664 38.7611ZM146.562 39.9375V45.3125H148.562V39.9375H146.562ZM147.562 6.3125C147.328 7.28458 147.328 7.28458 147.328 7.28458C147.328 7.28458 147.328 7.28459 147.328 7.28459C147.328 7.28459 147.328 7.28459 147.328 7.2846C147.328 7.2846 147.328 7.2846 147.328 7.28461C147.328 7.28464 147.328 7.28461 147.328 7.28464C147.328 7.28469 147.328 7.28463 147.328 7.28469C147.329 7.28488 147.328 7.28462 147.329 7.28482C147.33 7.28521 147.328 7.2846 147.33 7.28501C147.335 7.28623 147.327 7.28425 147.332 7.28554C147.335 7.28632 147.331 7.28544 147.335 7.28629C147.342 7.2879 147.336 7.28653 147.344 7.28843C147.38 7.29708 147.319 7.28248 147.356 7.29142C147.376 7.29624 147.367 7.294 147.392 7.29996C147.398 7.3014 147.407 7.3038 147.415 7.30552C147.415 7.30564 147.416 7.30577 147.416 7.30589C147.417 7.30602 147.417 7.30614 147.418 7.30627C147.419 7.30669 147.419 7.30661 147.421 7.30704C147.427 7.3085 147.421 7.30714 147.427 7.30861C147.449 7.31373 147.42 7.30674 147.441 7.31193C147.521 7.33123 147.484 7.32225 147.583 7.34611C147.676 7.36871 147.668 7.36679 147.781 7.39396C147.861 7.41326 147.817 7.40257 147.901 7.42301C147.908 7.42455 148.025 7.4528 148.036 7.45548C148.038 7.45593 148.105 7.47227 148.108 7.473C148.209 7.49729 148.083 7.4668 148.185 7.49137C148.186 7.49162 148.193 7.49348 148.194 7.49373C148.22 7.49981 148.179 7.49001 148.204 7.4961C148.212 7.49808 148.216 7.49887 148.224 7.50088C148.231 7.5026 148.257 7.5088 148.264 7.5106C148.311 7.5219 148.299 7.51909 148.347 7.53068C148.397 7.54268 148.383 7.53932 148.434 7.55161C148.446 7.5544 148.434 7.55149 148.445 7.55429C148.45 7.55555 148.451 7.55571 148.456 7.55698C148.485 7.56389 148.45 7.55547 148.479 7.5624C148.481 7.56285 148.483 7.56331 148.484 7.56376C148.486 7.56422 148.488 7.56467 148.49 7.56513C148.492 7.56559 148.494 7.56604 148.496 7.5665C148.498 7.56696 148.5 7.56741 148.501 7.56787C148.526 7.57377 148.488 7.56473 148.513 7.57063C148.519 7.57208 148.518 7.57195 148.524 7.5734C148.575 7.5856 148.497 7.56677 148.548 7.57898C148.549 7.57942 148.557 7.58135 148.559 7.58179C148.561 7.58226 148.563 7.58273 148.565 7.5832C148.567 7.58367 148.569 7.58414 148.571 7.58462C148.591 7.5895 148.562 7.58256 148.583 7.58745C148.585 7.58793 148.587 7.5884 148.589 7.58888C148.59 7.58935 148.592 7.58983 148.594 7.5903C148.651 7.6039 148.562 7.58243 148.618 7.59604C148.629 7.59874 148.655 7.60492 148.666 7.60769C148.668 7.60815 148.689 7.61311 148.691 7.61359C148.764 7.63124 148.642 7.60187 148.716 7.61954C148.718 7.62004 148.72 7.62054 148.722 7.62104C148.724 7.62154 148.726 7.62204 148.728 7.62254C148.757 7.62956 148.711 7.61853 148.74 7.62555C148.743 7.62605 148.745 7.62656 148.747 7.62706C148.749 7.62757 148.751 7.62807 148.753 7.62858C148.755 7.62908 148.757 7.62959 148.759 7.63009C148.761 7.6306 148.763 7.63111 148.766 7.63161C148.822 7.64524 148.734 7.62408 148.791 7.63773C148.795 7.63861 148.8 7.63992 148.804 7.64081C148.822 7.64517 148.798 7.63952 148.816 7.6439C148.833 7.64778 148.904 7.66493 148.921 7.6691C149.029 7.69513 149.028 7.69492 149.14 7.72208L149.61 5.77792C149.557 5.76511 149.55 5.76352 149.498 5.751C149.475 5.74538 149.467 5.74341 149.444 5.73786C149.431 5.7348 149.429 5.73442 149.417 5.73137C149.411 5.72986 149.41 5.72967 149.403 5.72815C149.401 5.72761 149.399 5.72708 149.397 5.72654C149.395 5.72601 149.392 5.72547 149.39 5.72494C149.356 5.71663 149.372 5.72047 149.338 5.71223C149.315 5.70688 149.308 5.70501 149.286 5.69973C149.238 5.68813 149.232 5.6867 149.185 5.67538C149.019 5.63535 148.964 5.62199 148.817 5.58651C148.815 5.58608 148.813 5.58566 148.811 5.58523C148.81 5.58481 148.808 5.58438 148.806 5.58395C148.805 5.58372 148.796 5.58164 148.796 5.58141C148.785 5.5788 148.785 5.57896 148.775 5.57636C148.753 5.5712 148.755 5.57152 148.733 5.56643C148.722 5.56365 148.664 5.5497 148.654 5.5472C148.575 5.52812 148.579 5.52926 148.505 5.51132C148.353 5.47463 148.383 5.48192 148.25 5.44979C148.089 5.41095 147.996 5.38837 147.91 5.36776C147.855 5.35436 147.862 5.3561 147.825 5.34725C147.817 5.34518 147.808 5.34306 147.804 5.34213C147.801 5.34144 147.801 5.34125 147.799 5.34085C147.798 5.34065 147.798 5.34065 147.798 5.34052C147.797 5.34048 147.797 5.34047 147.797 5.34044C147.797 5.34044 147.797 5.34043 147.797 5.34042C147.797 5.34042 147.797 5.34042 147.797 5.34042C147.797 5.34042 147.797 5.34042 147.562 6.3125ZM148.988 7.67198C150.83 8.44565 152.065 9.70685 152.755 11.4865L154.62 10.7635C153.727 8.45982 152.087 6.80435 149.762 5.82802L148.988 7.67198ZM152.739 11.4412C152.873 11.8423 152.988 12.4272 153.067 13.2245L155.058 13.0255C154.971 12.1561 154.836 11.4077 154.636 10.8088L152.739 11.4412ZM153.062 13.125V14.125H155.062V13.125H153.062ZM154.316 15.0924L159.566 13.7174L159.059 11.7826L153.809 13.1576L154.316 15.0924ZM160.312 12.75C160.312 9.26913 158.856 6.18471 156.065 3.52586L154.685 4.97414C157.144 7.31529 158.312 9.89753 158.312 12.75H160.312ZM156.05 3.51179C153.482 1.16597 150.646 -0.0625 147.562 -0.0625V1.9375C150.062 1.9375 152.434 2.91736 154.7 4.98821L156.05 3.51179ZM146.562 0.9375V6.3125H148.562V0.9375H146.562ZM163.688 32.8125L162.687 32.8125L162.688 32.8226L163.688 32.8125ZM166.5 5.5L165.732 4.85979L165.726 4.86676L166.5 5.5ZM176 0.9375H177V-0.0734286L175.989 -0.0624409L176 0.9375ZM176 6.375V7.375H177V6.375H176ZM170.062 10.25L169.186 9.76917L169.18 9.77936L169.175 9.78968L170.062 10.25ZM173.062 38.9375L173.562 38.0713L173.554 38.0667L173.062 38.9375ZM175.938 39.875H176.938V38.875H175.938V39.875ZM175.938 45.3125V46.3125H176.938V45.3125H175.938ZM168.812 42.75L168.217 43.5536L168.229 43.5618L168.812 42.75ZM179.375 45.3125H178.375V46.3125H179.375V45.3125ZM179.375 39.875V38.875H178.375V39.875H179.375ZM183.812 37.9375L184.465 38.6953L184.472 38.6891L184.479 38.6827L183.812 37.9375ZM186.25 32.8125L187.25 32.8333L187.25 32.8229V32.8125H186.25ZM184.25 8.5625L184.997 7.89814L184.983 7.88175L184.968 7.86602L184.25 8.5625ZM179.375 6.375H178.375V7.35302L179.353 7.37475L179.375 6.375ZM179.375 0.9375V-0.0625H178.375V0.9375H179.375ZM189.5 6.375L190.319 5.80154L190.319 5.80091L189.5 6.375ZM185.5 43.4375L186 44.3037L186.006 44.3001L186.012 44.2965L185.5 43.4375ZM164.688 32.8125V12.25H162.688V32.8125H164.688ZM164.688 12.25C164.688 10.3406 165.495 8.30725 167.274 6.13324L165.726 4.86676C163.755 7.27608 162.688 9.74269 162.688 12.25H164.688ZM167.268 6.14018C169.585 3.36042 172.477 1.97586 176.011 1.93744L175.989 -0.0624409C171.857 -0.017522 168.415 1.63958 165.732 4.85982L167.268 6.14018ZM175 0.9375V6.375H177V0.9375H175ZM176 5.375C173.028 5.375 170.744 6.92712 169.186 9.76917L170.939 10.7308C172.214 8.40622 173.889 7.375 176 7.375V5.375ZM169.175 9.78968C168.548 10.9976 168.188 12.1592 168.188 13.25H170.188C170.188 12.5908 170.41 11.7524 170.95 10.7103L169.175 9.78968ZM168.188 13.25V32.8125H170.188V13.25H168.188ZM168.188 32.8125C168.188 35.8516 169.723 38.2005 172.571 39.8083L173.554 38.0667C171.236 36.7578 170.188 35.0234 170.188 32.8125H168.188ZM172.563 39.8037C173.728 40.4757 174.862 40.875 175.938 40.875V38.875C175.346 38.875 174.564 38.6493 173.562 38.0713L172.563 39.8037ZM174.938 39.875V45.3125H176.938V39.875H174.938ZM175.938 44.3125C173.816 44.3125 171.641 43.553 169.396 41.9382L168.229 43.5618C170.734 45.3637 173.309 46.3125 175.938 46.3125V44.3125ZM169.408 41.9464C166.279 39.6289 164.726 36.6075 164.687 32.8024L162.688 32.8226C162.732 37.2675 164.596 40.8711 168.217 43.5536L169.408 41.9464ZM180.375 45.3125V39.875H178.375V45.3125H180.375ZM179.375 40.875C181.147 40.875 182.849 40.0871 184.465 38.6953L183.16 37.1797C181.776 38.3712 180.52 38.875 179.375 38.875V40.875ZM184.479 38.6827C186.255 37.0941 187.202 35.1292 187.25 32.8333L185.25 32.7917C185.215 34.4958 184.537 35.9476 183.146 37.1923L184.479 38.6827ZM187.25 32.8125V13.25H185.25V32.8125H187.25ZM187.25 13.25C187.25 11.3261 186.454 9.53636 184.997 7.89814L183.503 9.22686C184.713 10.5886 185.25 11.9239 185.25 13.25H187.25ZM184.968 7.86602C183.42 6.27187 181.55 5.42308 179.397 5.37525L179.353 7.37475C180.95 7.41025 182.33 8.0198 183.532 9.25898L184.968 7.86602ZM180.375 6.375V0.9375H178.375V6.375H180.375ZM179.375 1.9375C183.238 1.9375 186.315 3.57462 188.681 6.94909L190.319 5.80091C187.601 1.92538 183.929 -0.0625 179.375 -0.0625V1.9375ZM188.681 6.94846C190.066 8.92692 190.688 10.6874 190.688 12.25H192.688C192.688 10.1459 191.851 7.98975 190.319 5.80154L188.681 6.94846ZM190.688 12.25V32.8125H192.688V12.25H190.688ZM190.688 32.8125C190.688 37.069 188.825 40.2921 184.988 42.5785L186.012 44.2965C190.425 41.6663 192.688 37.806 192.688 32.8125H190.688ZM185 42.5713C182.94 43.7597 181.071 44.3125 179.375 44.3125V46.3125C181.513 46.3125 183.726 45.6153 186 44.3037L185 42.5713ZM196.75 45H195.75V46H196.75V45ZM196.75 13.75V12.75H195.75V13.75H196.75ZM197.312 13.75L198.238 13.3702L197.983 12.75H197.312V13.75ZM202.188 25.625H203.188V25.4277L203.113 25.2452L202.188 25.625ZM202.188 45V46H203.188V45H202.188ZM196.75 4.6875H195.75V4.88698L195.827 5.0712L196.75 4.6875ZM196.75 1.25V0.25H195.75V1.25H196.75ZM201.188 1.25L202.112 0.868332L201.856 0.25H201.188V1.25ZM215.562 36.0625L214.638 36.4442L215.531 38.6067L216.477 36.4668L215.562 36.0625ZM225.812 12.875V11.875H225.161L224.898 12.4707L225.812 12.875ZM226.438 12.875H227.438V11.875H226.438V12.875ZM226.438 25L227.353 25.4032L227.438 25.2105V25H226.438ZM217.625 45V46H218.277L218.54 45.4032L217.625 45ZM213.5 45L212.577 45.3837L212.833 46H213.5V45ZM229.562 45H228.562V46H229.562V45ZM229.562 1.25V0.25H228.562V1.25H229.562ZM235 1.25H236V0.25H235V1.25ZM235 45V46H236V45H235ZM197.75 45V13.75H195.75V45H197.75ZM196.75 14.75H197.312V12.75H196.75V14.75ZM196.387 14.1298L201.262 26.0048L203.113 25.2452L198.238 13.3702L196.387 14.1298ZM201.188 25.625V45H203.188V25.625H201.188ZM202.188 44H196.75V46H202.188V44ZM197.75 4.6875V1.25H195.75V4.6875H197.75ZM196.75 2.25H201.188V0.25H196.75V2.25ZM200.263 1.63167L214.638 36.4442L216.487 35.6808L202.112 0.868332L200.263 1.63167ZM216.477 36.4668L226.727 13.2793L224.898 12.4707L214.648 35.6582L216.477 36.4668ZM225.812 13.875H226.438V11.875H225.812V13.875ZM225.438 12.875V25H227.438V12.875H225.438ZM225.522 24.5968L216.71 44.5968L218.54 45.4032L227.353 25.4032L225.522 24.5968ZM217.625 44H213.5V46H217.625V44ZM214.423 44.6163L197.673 4.3038L195.827 5.0712L212.577 45.3837L214.423 44.6163ZM230.562 45V1.25H228.562V45H230.562ZM229.562 2.25H235V0.25H229.562V2.25ZM234 1.25V45H236V1.25H234ZM235 44H229.562V46H235V44Z" fill="url(#paint0_linear_1_10)"/>
<defs>
<linearGradient id="paint0_linear_1_10" x1="1.68539" y1="10.8316" x2="236.494" y2="48.7578" gradientUnits="userSpaceOnUse">
<stop stop-color="#1F7A8C"/>
<stop offset="0.489583" stop-color="#ADD9F4"/>
<stop offset="1" stop-color="#053C5E"/>
</linearGradient>
</defs>
</svg>
