<svg width="24" height="22" viewBox="0 0 24 22" fill="none" xmlns="http://www.w3.org/2000/svg">
<path d="M9 15L17.4 9.6L9 4.2V15ZM7.2 21.6V19.2H2.4C1.74 19.2 1.1752 18.9652 0.7056 18.4956C0.2352 18.0252 0 17.46 0 16.8V2.4C0 1.74 0.2352 1.1748 0.7056 0.7044C1.1752 0.2348 1.74 0 2.4 0H21.6C22.26 0 22.8252 0.2348 23.2956 0.7044C23.7652 1.1748 24 1.74 24 2.4V16.8C24 17.46 23.7652 18.0252 23.2956 18.4956C22.8252 18.9652 22.26 19.2 21.6 19.2H16.8V21.6H7.2ZM2.4 16.8H21.6V2.4H2.4V16.8Z" fill="black"/>
</svg>
