<svg width="605" height="191" viewBox="0 0 605 191" fill="none" xmlns="http://www.w3.org/2000/svg">
<rect y="3.05176e-05" width="604.978" height="191" fill="#0B0B0B"/>
<path d="M0 3.05176e-05H128.301C181.044 3.05176e-05 223.801 42.7568 223.801 95.5V95.5C223.801 148.243 181.044 191 128.301 191H0V3.05176e-05Z" fill="url(#paint0_linear_26_65)"/>
<path d="M604.978 191L476.677 191C423.934 191 381.177 148.243 381.177 95.5V95.5C381.177 42.7568 423.934 -8.62086e-07 476.677 3.83437e-06L604.978 1.52588e-05L604.978 191Z" fill="url(#paint1_linear_26_65)"/>
<path d="M265.633 82.0742V76H297.547V82.0742H285.184V116H277.997V82.0742H265.633ZM309.051 76L319.461 107.484H319.872L330.262 76H338.231L324.129 116H315.184L301.102 76H309.051Z" fill="url(#paint2_linear_26_65)"/>
<defs>
<linearGradient id="paint0_linear_26_65" x1="-1.15671e-06" y1="87.4333" x2="223.801" y2="88.6874" gradientUnits="userSpaceOnUse">
<stop stop-color="#101010"/>
<stop offset="1" stop-color="#1F1F1F"/>
</linearGradient>
<linearGradient id="paint1_linear_26_65" x1="390.119" y1="91.3365" x2="604.978" y2="90.8349" gradientUnits="userSpaceOnUse">
<stop stop-color="#1F1F1F"/>
<stop offset="1" stop-color="#101010"/>
</linearGradient>
<linearGradient id="paint2_linear_26_65" x1="301.5" y1="62" x2="301.5" y2="129" gradientUnits="userSpaceOnUse">
<stop stop-color="#D5F7FF"/>
<stop offset="0.458333" stop-color="#D5F7FF"/>
<stop offset="1" stop-color="#D5F7FF" stop-opacity="0.29"/>
</linearGradient>
</defs>
</svg>
